<svg xmlns="http://www.w3.org/2000/svg" width="480" height="338.1" viewBox="0 0 480 338.1"><defs><style>.cls-1{fill:#fff;}</style></defs><title>logo_web</title><g id="Layer_2" data-name="Layer 2"><path d="M72.21,338.1h0C32.65,338.1.58,307.94.58,270.75V67.45C.58,30.2,32.7,0,72.32,0H407.68c39.62,0,71.74,30.2,71.74,67.45v91.79a.08.08,0,0,1-.11.07c-1.82-.75-3.71-1.37-5.44-2.27-8.68-4.52-17.32-9-27.38-10.43-8.28-1.21-12.8-6.57-12.75-14a5.09,5.09,0,0,0-.65-2.17c-2.09-4.26-4.16-8.53-6.38-12.74a28,28,0,0,0-3.76-5.88c-3-3.26-6.63-6.09-5.92-11.07h0c1.53-5.15-.3-9.89-2.48-14.38A126.18,126.18,0,0,0,406.69,73C400.47,63.52,395.34,53.17,386,45.9c-7.16-5.55-14.92-10.41-22.4-15.59-8.05-5.57-17.69-6.78-27.07-8.68a.09.09,0,0,1-.06-.06c-1.16-4.28-2.06-4.6-6.25-3a23.64,23.64,0,0,1-6.53,1.54c-5.84.48-11.82-.06-17.56.83a114.21,114.21,0,0,0-29.9,9c-8.06,3.66-15.7,7.58-21.83,13.59a218.17,218.17,0,0,0-17.45,19.09c-2.56,3.19-3.66,7.4-5.25,10.91a.07.07,0,0,0,.12.08c7.45-5.49,14.75-10.89,22.05-16.28l.62,1.15,0,0,4,2.65c.07,0,.16,0,.13-.09l-1.35-3.26,1.18-.88,10.17,6.56.65-.72-7-7,.64-1.52c6.94-.39,13.87-.84,20.81-1.14,15.38-.67,30,3.11,44.44,7.3C345.66,65.52,363,71.36,380.75,75.6c12.42,3,21.94,9.5,30.94,17.25,2.4,2.06,5.69,4,5.4,7.8a.08.08,0,0,1-.13,0l-4.47-3.4c-.05,0-.13,0-.13,0l-.28,2.22a.07.07,0,0,1-.13,0L399.73,87.46,398,88.57c3.12,5.9,6.23,11.81,9.44,17.89a.08.08,0,0,1,0,.1l-3.13,1.55c2.2.29,4.25-.39,6.14-.11,11,1.64,16.7,7.42,17.65,18.64.47,5.55-1.15,11.26-1.77,16.37a.07.07,0,0,0,0,.07c.59.33,1.74.7,1.75,1.1.17,4.77.83,9.66,0,14.3C427,164.74,424.75,170.81,423,177q1.32-5.88,2.66-11.76c0-.07-.08-.12-.13-.07a12.94,12.94,0,0,0-4.11,5.62c-5.77,16.82-14.22,32.44-23.82,47.55-.34.53-.08,1.41-.05,2.87a.08.08,0,0,0,.14,0L406.85,209c.07.62.44,1.41.16,1.83-5.62,8.55-11.56,16.92-16.85,25.64-1.45,2.39-5.57,4.65-2.83,8.34a.09.09,0,0,0,.08,0,22.36,22.36,0,0,0,2.76-.37c2.52-.7,5.26-1.1,7.43-2.35,2-1.12,3.23-3.26,4.91-4.86.76-.72,2-1.06,2.62-1.85,3.75-4.85,7.38-9.77,11.1-14.73a.08.08,0,0,1,.14,0c.24.52.45.93.65,1.34a.07.07,0,0,0,.13,0,6.74,6.74,0,0,0,1.11-1.67c.4-1.29.61-2.64.9-4l-.12-.12c2.77,5.7.14,10-3.51,13.16a.09.09,0,0,0,0,.07c.23,1.2.62,2,.38,2.25-2.87,3.38-3.68,6.48.33,9.82.56.47-.29,3.48-1.37,4.43-1.75,1.56-4.5,2.1-6.34,3.6a100.11,100.11,0,0,0-11.66,10.64c-2.58,2.9-4.23,6.55-6.14,9.94-.7,1.24-.76,2.79-1.47,4-1.8,3.13-4.07,6-5.66,9.25-2.1,4.26-3.79,8.69-9.64,11.34h2c-1.36,2.61-2.75,5.29-4.15,8-2.44,4.64-4.91,9.27-7.34,13.92-.86,1.63-1.38,3.49-2.53,4.9a40.2,40.2,0,0,0-8,16.42.07.07,0,0,1-.07.06H345.9a.07.07,0,0,1-.07-.09l1-5.64.55.21,1.38-3.65h0L369,292.36l-1.13-1.14a35.64,35.64,0,0,0-5.92,2.65c-4,2.66-7.93,5.53-11.73,8.49-1.66,1.29-3.78,2.81-4.24,4.57-1.87,7-3.16,14.22-4.7,21.35-.16.75-.5,1.47-1,2.84,0-6.61.06-12.39,0-18.17,0-1.59-.1-4.26-.9-4.54a14.71,14.71,0,0,0-6.81-.37,54.22,54.22,0,0,0-8.13,2.26,7.73,7.73,0,0,0-3.11,1.51c-3.79,3.75-6.8,3.63-9.89,0a.09.09,0,0,1,0-.07c.49-1.77.77-3.1,1.23-4.38.87-2.42.75-5.33,4.24-6.38a39.47,39.47,0,0,0,5.85-2.77.09.09,0,0,0,0-.09l-.56-1.6a.1.1,0,0,0-.08-.05l-11.63.71a.07.07,0,0,1-.08-.08V285.79a5.09,5.09,0,0,1,.63-.26,28.84,28.84,0,0,0-4.44-3c-.92-.43-2.88-.48-3.33.07-2.16,2.64-4.78,5.3-5.76,8.38a178.75,178.75,0,0,0-5.34,21.6c-1.59,8.45-2.56,17-3.79,25.5a.08.08,0,0,1-.08.07h-16.9a.09.09,0,0,1-.08-.06,8.91,8.91,0,0,1-.59-3.05c.68-4.39,1.61-8.74,2.35-13.12q1-5.88,1.72-11.8c.21-1.67-.19-3.45.24-5,1.66-6.19,4-12.24,5.23-18.5,1.43-7.39,5.67-13.3,9.6-19.69a.07.07,0,0,0,0-.09c-19.33-18.9-37.77-38.71-42.55-66.42a.08.08,0,0,0-.1-.06c-5.08,1.4-9.11,2.46-13.1,3.64-14.4,4.22-27,11.68-39.79,19-6.21,3.55-12.53,7.49-15.12,13.93-4.3,10.73-6.88,22.06-11.17,32.8-2.82,7-7.32,13.49-11.25,20.49a.08.08,0,0,1-.14,0c-3.52-10.09-6.7-19.22-10.05-28.84a.09.09,0,0,0-.16,0c-.23,1.72-.44,3.19-.63,4.67-.55,4.22-.64,8.56-1.72,12.66-2.86,10.87-11,18.63-18.54,26.74-2,2.17-4.21,1.63-6.54.77h0L97.4,291.64l0,0c-7.28-11.58-5-23.22-.17-34.92a.08.08,0,0,0-.14-.07,112.62,112.62,0,0,0-7.67,13.11c-6.42,13.07-13,26.1-18.85,39.37-2.13,4.8-2.63,10.24-3.86,15.39a.07.07,0,0,0,0,.09l1.12.23a.07.07,0,0,0,.09-.05L71.07,314a.08.08,0,0,1,.15,0,15.13,15.13,0,0,1,.91,5.44c.15,1.92,1.41,4.25.64,5.65-2.39,4.37-2.26,8.53-.49,12.88A.07.07,0,0,1,72.21,338.1ZM224.35,94.86s0,0,0,0c2.8-3.26,5.74-6.42,8.3-9.83.66-.88.1-2.57.1-3.89l-1-.22q-3.69,7-7.35,14h0c-2,6.2-5.47,12.1-5,18.69,1.42-4.3,3-8.69,4.29-13.14A31.47,31.47,0,0,0,224.35,94.86ZM93.8,166a.07.07,0,0,0,.07.1c4,0,7.81,0,11.58,0,1.52,0,4.14.08,4.36-.51,1.16-3,3.67-1.64,5.63-2,11.3-2.09,20.92,4.07,31.45,5.74,2.41.38,4.12.64,5.69-2.52a.08.08,0,0,0,0-.1c-3.58-2.38-6.84-5.59-10.81-6.91a47.68,47.68,0,0,0-15.14-2,211.25,211.25,0,0,0-24.25,1.72C98.56,160,95.15,162.13,93.8,166Zm46-30a.08.08,0,0,0,.14.07c3.41-3.3,5.5-7.12,11.6-7.47,5.42-.31,9.3.37,12.74,4.61a.08.08,0,0,0,.14,0,9.34,9.34,0,0,0-8.66-10.08C149.53,122.38,141.33,128.9,139.81,136Zm-26.69,75.46c4.81-2.54,5.12-2.44,16.17,1.44a.09.09,0,0,0,.12-.07c0-4.3-2.88-8.82-6.64-9.49-6.24-1.11-6.39,4.34-9.75,8C113,211.43,113.05,211.52,113.12,211.48ZM337.4,89.3a.07.07,0,0,0,.13,0l12-12.49-2.39.59a.08.08,0,0,1-.09-.1l1-2.51-.91-.34-3,5.91-1-.49,2.37-5.28a.08.08,0,0,0-.07-.11C340.2,74.36,336.7,81,337.4,89.3Zm42.29,16,1-.07V96.16l.77,0c.28,3.26.56,6.52.88,10.14,0,.07.1.09.14,0,3.25-3.74,1.26-7.16.09-10.59-1.33-3.86-2.58-7.74-3.86-11.61a.07.07,0,0,0-.09-.05l-1.31.15a.08.08,0,0,0-.07.08c.35,2.65.63,5.31,1.1,7.94.11.66,1.25,1.2,1.27,1.82C379.75,97.82,379.69,101.58,379.69,105.35ZM96.64,181a.07.07,0,0,0,0-.09,31.24,31.24,0,0,0-3.92-3.36c-.73-.43-2.45-.59-2.81-.17-2,2.36-3.84,4.92-5.71,7.41a.08.08,0,0,0,.09.11C88.39,183.24,94.24,186,96.64,181Zm299-94.92-1.85.32a.07.07,0,0,0-.06.09q1.35,5.75,2.71,11.49l-.92.09-.82-1.27a.08.08,0,0,0-.1,0h0l3.86,9.61,1-.25a.06.06,0,0,0,.05-.08L395.7,86.12A.08.08,0,0,0,395.61,86.06Zm-31.9,5.48C365.24,87,366.58,83,368,78.76a.09.09,0,0,0-.13-.09c-4.61,3.11-8,10.31-6.74,13.86,0,.13.34.19.64.34.11-1,.21-1.9.36-3.22a.08.08,0,0,1,.15,0c.54.82.92,1.41,1.28,1.94A.08.08,0,0,0,363.71,91.54Zm-208,83.71c2.46,7.44,4.67,14.11,6.79,20.55a.08.08,0,0,0,.16,0c.51-6.44-2.81-17.49-6.82-20.63A.08.08,0,0,0,155.68,175.25Zm-11.32,13.28,6.07.43.54-1.89-7.42-3.43a.08.08,0,0,0-.11.08l.85,4.75A.07.07,0,0,0,144.36,188.53ZM388.92,93.36c-.55,4.9,1.48,8.57,4.27,8.84a.09.09,0,0,0,.09-.11l-4.21-8.76A.08.08,0,0,0,388.92,93.36Z"/><path class="cls-1" d="M423,177c1.78-6.15,4.06-12.22,5.17-18.48.82-4.64.16-9.53,0-14.3,0-.41-1.22-.78-1.79-1.12.61-5.13,2.24-10.85,1.77-16.42-.95-11.22-6.62-17-17.65-18.64-1.89-.28-3.94.4-6.14.11l3.19-1.58c-3.3-6.26-6.51-12.33-9.71-18.39l1.57-1,12.7,12.6.3-2.5,4.71,3.58,0,0c-.72,5,2.94,7.79,5.91,11.06a28,28,0,0,1,3.76,5.88c2.22,4.21,4.29,8.48,6.38,12.74a5.09,5.09,0,0,1,.65,2.17c-.05,7.42,4.47,12.78,12.75,14,10.06,1.46,18.7,5.91,27.38,10.43,1.76.92,3.69,1.55,5.55,2.31V270.72c0,37.21-32.08,67.38-71.66,67.38H353.88a40,40,0,0,1,8-16.48c1.15-1.41,1.67-3.27,2.53-4.9,2.43-4.65,4.9-9.28,7.34-13.92,1.4-2.67,2.79-5.35,4.15-8h-2c5.85-2.65,7.54-7.08,9.64-11.34,1.59-3.22,3.86-6.12,5.66-9.25.71-1.23.77-2.78,1.47-4,1.91-3.39,3.56-7,6.14-9.94a100.11,100.11,0,0,1,11.66-10.64c1.84-1.5,4.59-2,6.34-3.6,1.08-1,1.93-4,1.37-4.43-4-3.34-3.2-6.44-.33-9.82.25-.29-.15-1.06-.38-2.29,3.67-3.15,6.32-7.48,3.55-13.19l2.7,3.17c1.2-1.16,2.46-1.86,2.73-2.8a5.52,5.52,0,0,0-.66-3.34,35.51,35.51,0,0,0-2.13-3.79c1.43,1.18,2.87,2.35,4.67,3.82.35-2.43.94-4.39.8-6.31-.11-1.42-1.16-2.78-1.79-4.16l4.66,4.58c-.77-4.36,2.4-8.12-2.34-10-.64,1.62-1.41,3.59-2.17,5.57-1.24,2.22-2.48,4.43-3.7,6.65,0,2.18,0,4.35,0,7.66l-2.24-3.64-.43,2.72c-.29,1.32-.5,2.67-.9,4a7.91,7.91,0,0,1-1.19,1.78l-.76-1.58c-3.74,5-7.4,10-11.18,14.84-.62.79-1.86,1.13-2.62,1.85-1.68,1.6-2.95,3.74-4.91,4.86-2.17,1.25-4.91,1.65-7.43,2.35a22.75,22.75,0,0,1-2.81.37c-2.8-3.71,1.35-6,2.8-8.38,5.29-8.72,11.23-17.09,16.85-25.64.28-.42-.09-1.21-.16-1.83l-.12.15c2.71-4.13,5.62-8.15,8.06-12.42,1.55-2.71,2.39-5.78,3.55-8.69Q420.65,182.51,423,177ZM404.49,298.89l1.68.31c.77-2.29,1.53-4.59,2.3-6.88.41-1.19.43-2.92,1.3-3.49,4.26-2.8,7.05-6.28,7.9-11.22.26-1.53,1.78-2.84,2.28-4.38,1.38-4.21,3-8.44,3.48-12.76.15-1.3-2.95-3.19-4.87-4.35-3-1.84-6.1-4.17-10.09-3.16a10.69,10.69,0,0,0-4.41,2.38c-.39.36.71,2,.91,3.1.72,3.94,2,7.91,1.88,11.82C406.44,279.82,405.32,289.35,404.49,298.89Z"/><path class="cls-1" d="M119,306.09c2.33.86,4.53,1.41,6.55-.76,7.51-8.11,15.68-15.87,18.54-26.74,1.08-4.1,1.17-8.44,1.72-12.66.2-1.57.42-3.13.68-5,3.41,9.78,6.64,19.05,10.21,29.32,3.95-7.06,8.5-13.55,11.34-20.64,4.29-10.74,6.87-22.07,11.17-32.8,2.59-6.44,8.91-10.38,15.12-13.93,12.74-7.3,25.39-14.76,39.79-19,4-1.18,8.07-2.25,13.19-3.66,4.76,27.77,23.24,47.61,42.6,66.54-3.94,6.41-8.19,12.34-9.63,19.74-1.22,6.26-3.57,12.31-5.23,18.5-.43,1.59,0,3.37-.24,5q-.75,5.91-1.72,11.8c-.74,4.38-1.67,8.73-2.35,13.12-.16,1,.38,2.07.6,3.11H152.12c-.6-3.23-1.24-6.45-1.78-9.69-.86-5.08-2.94-5.86-7.77-3.07a40,40,0,0,1-5.13,2.11l-.61-.87c1.57-3,3.14-6,4.74-9l-4.18-1.2c5-12,11.34-23.29,9.4-36.7-1.32,13.3-6.95,24.22-19.43,30.62l4.94,5.29-.87.78Z"/><path d="M119,306.09l12.39,10.25.87-.78-4.94-5.29c12.48-6.4,18.11-17.32,19.43-30.62,1.94,13.41-4.45,24.66-9.4,36.7l4.18,1.2c-1.6,3.06-3.17,6.05-4.74,9l.61.87a40,40,0,0,0,5.13-2.11c4.83-2.79,6.91-2,7.77,3.07.54,3.24,1.18,6.46,1.78,9.69h-9.86L136.15,329l-.4,3.59-1.09-.11.22-4.21-2.66,3.32-1.71-3.21c-1,3.9-1.82,6.79-2.6,9.68H74.11c-.26-2.19-3.39-4.08-.46-6.67a7.58,7.58,0,0,0,2.18-4.35c1.31-8.86,1.69-17.9,3.75-26.6,2.3-9.69,6.06-19.07,9.19-28.58l1.56.28c-1.94,12.82-6.83,25.94,5.2,37.18-.77-4-1.53-8.05-2.24-11.76L97,295.68c-.84-1.5-1.63-2.89-2.85-5l3.2,1Z"/><path class="cls-1" d="M288.42,338.1c1.24-8.53,2.21-17.1,3.8-25.57a178.75,178.75,0,0,1,5.34-21.6c1-3.08,3.6-5.74,5.76-8.38.45-.55,2.41-.5,3.33-.07a28.84,28.84,0,0,1,4.44,3,5.09,5.09,0,0,0-.63.26v11.35l11.77-.71.6,1.71a41.35,41.35,0,0,1-5.91,2.8c-3.49,1.05-3.37,4-4.24,6.38-.46,1.28-.75,2.62-1.24,4.41,3.1,3.71,6.11,3.84,9.91.08a7.73,7.73,0,0,1,3.11-1.51,54.22,54.22,0,0,1,8.13-2.26,14.71,14.71,0,0,1,6.81.37c.8.28.87,2.95.9,4.54.1,5.78,0,11.56,0,18.17.47-1.37.81-2.09,1-2.84,1.54-7.13,2.83-14.31,4.7-21.35.46-1.76,2.58-3.28,4.24-4.57,3.8-3,7.69-5.83,11.73-8.49a40.48,40.48,0,0,1,6.28-2.8l.88,1.1-20.42,36.75c-.47,1.25-.93,2.45-1.38,3.66l-.55-.21c-.33,1.91-.65,3.82-1,5.73Z"/><path class="cls-1" d="M97.39,291.63l-3.2-1c1.22,2.15,2,3.54,2.85,5l-3.75,1.92c.71,3.71,1.47,7.73,2.24,11.76-12-11.24-7.14-24.36-5.2-37.18l-1.56-.28c-3.13,9.51-6.89,18.89-9.19,28.58-2.06,8.7-2.44,17.74-3.75,26.6a7.58,7.58,0,0,1-2.18,4.35c-2.93,2.59.2,4.48.46,6.67H72.32c-1.8-4.39-2-8.58.45-13,.77-1.4-.49-3.73-.64-5.65s0-3.57-1-5.64q-1.6,5.51-3.2,11l-1.26-.27c1.24-5.17,1.74-10.64,3.88-15.46,5.9-13.27,12.43-26.3,18.85-39.37A113.47,113.47,0,0,1,97.5,256C92.5,267.94,90,279.81,97.39,291.63Z"/><path class="cls-1" d="M127.91,338.1c.78-2.89,1.55-5.78,2.6-9.68l1.71,3.21,2.66-3.32-.22,4.21,1.09.11.4-3.59,6.11,9.06Z"/><path class="cls-1" d="M417.08,100.79c.38-3.94-3-5.85-5.39-7.94-9-7.75-18.52-14.29-30.94-17.25C363,71.36,345.66,65.52,328.12,60.43c-14.48-4.19-29.06-8-44.44-7.3-7,.31-14.06.76-21.09,1.15l-.48,1.4,7.7,7.62-.58.59-11-7.12-1,.83,1.54,3.71-4.27-2.8-.62-1.17L231.55,73.8c1.65-3.56,2.74-7.91,5.36-11.17a218.17,218.17,0,0,1,17.45-19.09c6.13-6,13.77-9.93,21.83-13.59a114.21,114.21,0,0,1,29.9-9c5.52-.86,11.25-.39,16.86-.77a24.86,24.86,0,0,0,7.15-1.57c4.28-1.65,5.17-1.35,6.34,3,9.4,1.91,19.05,3.11,27.12,8.69,7.48,5.18,15.24,10,22.4,15.59,9.38,7.27,14.51,17.62,20.73,27.14a126.18,126.18,0,0,1,7.86,13.33c2.18,4.49,4,9.23,2.48,14.39Z"/><path class="cls-1" d="M93.76,166.09c1.33-3.92,4.77-6.08,8.6-6.58a211.25,211.25,0,0,1,24.25-1.72,47.68,47.68,0,0,1,15.14,2c4,1.32,7.26,4.56,10.86,6.95-1.58,3.22-3.29,3-5.72,2.58-10.53-1.67-20.15-7.83-31.45-5.74-2,.36-4.47-1-5.63,2-.22.59-2.84.48-4.36.51C101.65,166.13,97.85,166.09,93.76,166.09Z"/><path class="cls-1" d="M423,177q-2.33,5.55-4.63,11.1l-11.61,21.11.12-.15-9.33,12.38c0-1.6-.31-2.54.05-3.1,9.6-15.11,18.05-30.73,23.82-47.55a13,13,0,0,1,4.29-5.77Q424.33,171,423,177Z"/><path class="cls-1" d="M139.76,136.28c1.38-7.22,9.69-13.91,16-13.17,5.35.62,8.93,4.57,8.66,10.3-3.48-4.4-7.38-5.11-12.88-4.79C145.34,129,143.28,132.94,139.76,136.28Z"/><path class="cls-1" d="M112.72,211.69c3.66-3.67,3.62-9.47,10-8.33,3.79.67,6.73,5.27,6.64,9.6C117.94,208.93,117.94,208.93,112.72,211.69Z"/><path class="cls-1" d="M337.41,89.48c-.76-8.44,2.8-15.22,8.23-15l-2.42,5.39,1,.49,3-5.91.91.34-1,2.64,2.53-.62Z"/><path class="cls-1" d="M379.69,105.35c0-3.77.06-7.53-.06-11.29,0-.62-1.16-1.16-1.27-1.82-.48-2.66-.75-5.34-1.1-8l1.45-.17c1.29,3.89,2.54,7.79,3.88,11.67,1.19,3.48,3.21,6.94-.22,10.74-.32-3.69-.6-7-.89-10.33l-.77,0v9.12Z"/><path class="cls-1" d="M96.67,180.93c-2.44,5.16-8.5,2.19-12.64,4,1.92-2.56,3.75-5.19,5.86-7.62.36-.42,2.08-.26,2.81.17A31.74,31.74,0,0,1,96.67,180.93Z"/><path class="cls-1" d="M395.68,86.05q1.92,10,3.85,20l-1.48.35-4.11-9.4.7-.33.85,1.33.92-.09L393.68,86.4Z"/><path class="cls-1" d="M363.66,91.7l-1.5-2.27c-.16,1.45-.26,2.39-.38,3.44-.3-.15-.6-.21-.64-.34-1.3-3.6,2.22-11,6.94-14C366.61,82.92,365.23,87,363.66,91.7Z"/><path class="cls-1" d="M155.6,175c4.19,3,7.68,14.68,7,21.16C160.41,189.55,158.14,182.68,155.6,175Z"/><path class="cls-1" d="M224.39,94.88l7.38-14,1,.22c0,1.32.56,3-.1,3.89-2.56,3.42-5.51,6.59-8.31,9.85Z"/><path class="cls-1" d="M144.3,188.53c-.23-1.27-.44-2.47-.88-5l8,3.69-.56,1.72Z"/><path class="cls-1" d="M224.35,94.84a31.8,31.8,0,0,1-.61,5.62c-1.29,4.45-2.87,8.84-4.29,13.14-.51-6.59,2.91-12.5,5-18.71Z"/><path class="cls-1" d="M389,93.08l4.38,9.13C390.41,102.05,388.28,98.2,389,93.08Z"/><path d="M404.48,298.93c.84-9.55,1.95-19.1,2.37-28.67.17-3.91-1.16-7.88-1.88-11.82-.2-1.09-1.3-2.74-.91-3.1a10.69,10.69,0,0,1,4.41-2.38c4-1,7.06,1.32,10.09,3.16,1.92,1.16,5,3.05,4.87,4.35-.48,4.32-2.1,8.55-3.48,12.76-.5,1.54-2,2.85-2.28,4.38-.85,4.94-3.64,8.42-7.9,11.22-.87.57-.89,2.3-1.3,3.49-.77,2.29-1.53,4.59-2.3,6.88Z"/><path d="M406.73,209.17l11.61-21.11c-1.16,2.91-2,6-3.55,8.69C412.35,201,409.44,205,406.73,209.17Z"/><path d="M425.51,203c.77-2,1.54-3.94,2.18-5.56,4.74,1.89,1.57,5.65,2.34,10l-4.65-4.58Z"/><path d="M421.8,209.69l3.72-6.64-.14-.14c.62,1.38,1.67,2.74,1.78,4.16.14,1.92-.45,3.88-.8,6.31l-4.66-3.81Z"/><path d="M419.16,216.44c.13-.8.25-1.59.43-2.72l2.24,3.64c0-3.31,0-5.48,0-7.66a.71.71,0,0,1-.12-.13,36.06,36.06,0,0,1,2.12,3.78,5.52,5.52,0,0,1,.66,3.34c-.27.94-1.53,1.64-2.73,2.8l-2.7-3.17A1.2,1.2,0,0,0,419.16,216.44Z"/><path class="cls-1" d="M44.76,82.9c-1.08.15-1.78.25-2.11.31l.27-2.07A5.13,5.13,0,0,0,45.71,80a4,4,0,0,0,.72-2.68l0-18.9a3.69,3.69,0,0,0-.34-1.93,1.49,1.49,0,0,0-1.32-.5c-.3,0-.6,0-.9.05s-.51,0-.63,0l-.09-.18.31-2c.36,0,1,.06,2,.09s2,0,3,0,2.06,0,3.12-.07,1.8-.08,2.19-.11q4.27,0,6.57,1.78a6,6,0,0,1,2.29,5.06,6.54,6.54,0,0,1-1.37,4,9.51,9.51,0,0,1-3.85,2.88,10.33,10.33,0,0,1,5.13,2.52,5.83,5.83,0,0,1,1.85,4.32A7.14,7.14,0,0,1,63,78.74a10.32,10.32,0,0,1-3.89,3.19,11.62,11.62,0,0,1-5.22,1.19,19.91,19.91,0,0,1-2.79-.22c-1.71-.15-2.8-.23-3.28-.23A22.12,22.12,0,0,0,44.76,82.9Zm4.86-5.22a2.63,2.63,0,0,0,1.17,2.43,8,8,0,0,0,4,.72A5.81,5.81,0,0,0,59,79.32a6,6,0,0,0,0-8,8.24,8.24,0,0,0-4.55-2.1l-4.68.09Zm2.54-10.62q1.61.14,2.64.18c0,.09.39-.07,1.17-.47a6.32,6.32,0,0,0,2.11-1.89,5.71,5.71,0,0,0,1-3.45,4.91,4.91,0,0,0-1.94-4.27q-1.94-1.39-6-1.4a.72.72,0,0,0-.61.21,1.61,1.61,0,0,0-.2.83q-.27,4.32-.41,10.08Z"/><path class="cls-1" d="M72.57,82a8.42,8.42,0,0,1-3.33-3.51,11.22,11.22,0,0,1-1.17-5.2,12.23,12.23,0,0,1,1.37-5.67,11.38,11.38,0,0,1,3.67-4.23A8.53,8.53,0,0,1,78,61.79a6.88,6.88,0,0,1,5,1.67,6.48,6.48,0,0,1,1.71,4.86,7.73,7.73,0,0,1-.27,2.2l-.58.54H71.45c0,2.91.54,5.16,1.73,6.73a5.84,5.84,0,0,0,5,2.36,13,13,0,0,0,5.49-1.39l.27.09.5,1.3a24,24,0,0,1-3.58,2.12,8,8,0,0,1-3.31.94A9.83,9.83,0,0,1,72.57,82Zm7.2-13a1.62,1.62,0,0,0,.9-.31,1.3,1.3,0,0,0,.23-.9,3.7,3.7,0,0,0-1-2.75,3.81,3.81,0,0,0-2.77-.94,5,5,0,0,0-3.62,1.44,6.66,6.66,0,0,0-1.91,3.87Z"/><path class="cls-1" d="M88,81.37a4,4,0,0,0,1.77-.9,2.28,2.28,0,0,0,.63-1.31,18.75,18.75,0,0,0,.12-2.56V54.5a3.86,3.86,0,0,0-.32-1.89,1.44,1.44,0,0,0-1.3-.49c-.16,0-.5,0-1,.09l-.13-.09.18-1.53a58.22,58.22,0,0,0,6.66-1.31l.27.59q-.51.77-.88,9.63t-.38,18.76A3.78,3.78,0,0,0,94,80.2a1.29,1.29,0,0,0,1.21.58l1.58-.09.09.18-.36,1.94c-2-.09-3.32-.14-4-.14a29.81,29.81,0,0,0-4.63.54Z"/><path class="cls-1" d="M114.64,81.5a11.64,11.64,0,0,1-4.7-4.83,15.7,15.7,0,0,1-1.64-7.36,16.34,16.34,0,0,1,2-8.12,14.47,14.47,0,0,1,5.6-5.67A15.88,15.88,0,0,1,124,53.47a23.28,23.28,0,0,1,3.4.25c1.16.16,2.13.33,2.93.49s1.29.28,1.5.34l.19.27a11.72,11.72,0,0,0-.3,1.3q-.19,1-.45,2.7c-.16,1.11-.29,2.28-.38,3.51l-2.16.18a7.85,7.85,0,0,0,.09-.83c0-.4.05-.86.05-1.37q0-4.19-6.62-4.19A9.47,9.47,0,0,0,117,57.56a9.35,9.35,0,0,0-3.47,4.08,14.59,14.59,0,0,0-1.21,6.18,17.35,17.35,0,0,0,1.28,6.89,10.6,10.6,0,0,0,3.62,4.61,9.13,9.13,0,0,0,5.4,1.64,6.93,6.93,0,0,0,4.93-1.73,10.42,10.42,0,0,0,2.73-5.38l2.15-.18c-.09.45-.28,1.45-.58,3a42.47,42.47,0,0,0-.63,4.34l-.27.4a9,9,0,0,1-1.37.52,26.13,26.13,0,0,1-3.42.88,23,23,0,0,1-4.44.4A14.36,14.36,0,0,1,114.64,81.5Z"/><path class="cls-1" d="M135.93,81.37a3.73,3.73,0,0,0,1.94-1.06,2.86,2.86,0,0,0,.58-1.87V67c0-1.62-.56-2.43-1.66-2.43a4.13,4.13,0,0,0-.68.07,2.81,2.81,0,0,0-.45.11l.18-1.66c1.26-.18,2.56-.42,3.89-.72l2.59-.59.22.54a26.27,26.27,0,0,0-.71,5.79c-.22,3.22-.32,6.6-.32,10.14a3.93,3.93,0,0,0,.36,1.92,1.29,1.29,0,0,0,1.21.6c.33,0,.65,0,.95,0l.63,0,.09.18-.36,1.94q-.4,0-1.53-.09c-.75,0-1.57,0-2.47,0a18.3,18.3,0,0,0-2.68.23c-1,.15-1.66.25-2,.31Zm2.16-25.56a2.39,2.39,0,0,1-.59-1.62,2.61,2.61,0,0,1,.77-1.87,2.55,2.55,0,0,1,1.89-.79,2,2,0,0,1,1.62.68,2.39,2.39,0,0,1,.59,1.62,2.61,2.61,0,0,1-.77,1.87,2.54,2.54,0,0,1-1.89.78A2,2,0,0,1,138.09,55.81Z"/><path class="cls-1" d="M152.65,83a16.5,16.5,0,0,1-2-.3l-.4-.36V54.5c0-1.62-.56-2.43-1.67-2.43a3.83,3.83,0,0,0-.63,0,1.5,1.5,0,0,0-.36.09l-.13-.14.17-1.48c1.29-.18,2.63-.42,4-.72l2.65-.59.27.59c-.21.3-.4,1.82-.58,4.57s-.33,6.24-.45,10.5c1.35-1,2.51-1.72,3.49-2.29a5.29,5.29,0,0,1,2-.86,8.48,8.48,0,0,1,4.5,1.22,8.33,8.33,0,0,1,3.08,3.4,11,11,0,0,1,1.1,5,11.93,11.93,0,0,1-1.51,5.94,11.47,11.47,0,0,1-4.07,4.28,10.55,10.55,0,0,1-5.62,1.57A31.46,31.46,0,0,1,152.65,83Zm9.85-4.28a8.36,8.36,0,0,0,1.73-5.6,10.75,10.75,0,0,0-.78-4.14,7.44,7.44,0,0,0-2.16-3,4.69,4.69,0,0,0-3-1.11,5.52,5.52,0,0,0-2.29.7,11,11,0,0,0-2.52,1.73l-.14,12.51a8.8,8.8,0,0,0,2.07.68,11.29,11.29,0,0,0,2.34.27A5.87,5.87,0,0,0,162.5,78.69Z"/><path class="cls-1" d="M175.12,82A8.44,8.44,0,0,1,172,78.42a11.83,11.83,0,0,1-1.1-5.2,12.38,12.38,0,0,1,1.37-5.78,10.68,10.68,0,0,1,3.76-4.14,9.78,9.78,0,0,1,5.31-1.51,8.29,8.29,0,0,1,4.52,1.26A8.39,8.39,0,0,1,189,66.59a11.78,11.78,0,0,1,1.1,5.19,12.42,12.42,0,0,1-1.37,5.79A10.68,10.68,0,0,1,185,81.71a9.77,9.77,0,0,1-5.31,1.5A8.3,8.3,0,0,1,175.12,82Zm9.81-3a9.28,9.28,0,0,0,1.49-5.56,13,13,0,0,0-.81-4.74,7.59,7.59,0,0,0-2.27-3.27A5.17,5.17,0,0,0,180,64.22a4.69,4.69,0,0,0-4,2.07,9.49,9.49,0,0,0-1.48,5.63,12.87,12.87,0,0,0,.81,4.72,7.47,7.47,0,0,0,2.25,3.22A5.16,5.16,0,0,0,180.93,81,4.68,4.68,0,0,0,184.93,79Z"/></g></svg>
