<svg xmlns="http://www.w3.org/2000/svg" width="330" height="245" viewBox="0 0 330 245"><defs><style>.cls-1{fill:#fff;}</style></defs><title>logo_ipad</title><g id="Layer_3" data-name="Layer 3"><path d="M48.6,245.14h0c-27.44,0-49.69-21.91-49.69-48.94V48.47c0-27.06,22.28-49,49.76-49H281.33c27.48,0,49.76,22,49.76,49v66.7s0,.07-.07,0a41.12,41.12,0,0,1-3.78-1.65c-6-3.28-12-6.51-19-7.58-5.75-.87-8.88-4.77-8.85-10.16a3.77,3.77,0,0,0-.45-1.58c-1.45-3.09-2.88-6.2-4.42-9.25a20.67,20.67,0,0,0-2.61-4.28c-2.07-2.37-4.6-4.43-4.11-8h0c1.06-3.74-.21-7.19-1.72-10.45a92.26,92.26,0,0,0-5.46-9.68c-4.31-6.92-7.87-14.44-14.37-19.73-5-4-10.35-7.56-15.54-11.32-5.59-4-12.27-4.93-18.78-6.31,0,0,0,0,0,0-.81-3.12-1.43-3.35-4.34-2.18A15.44,15.44,0,0,1,223,14.08c-4.05.35-8.2,0-12.18.6a76.62,76.62,0,0,0-20.75,6.55c-5.59,2.65-10.89,5.5-15.14,9.87A154.43,154.43,0,0,0,162.86,45c-1.78,2.32-2.54,5.38-3.64,7.93a.05.05,0,0,0,.08.06l15.29-11.83L175,42l0,0,2.8,1.93a.05.05,0,0,0,.08-.06L177,41.48l.83-.65,7.05,4.77.45-.52L180.42,40l.44-1.1c4.82-.28,9.63-.61,14.44-.83,10.67-.49,20.79,2.26,30.83,5.31,12.17,3.69,24.19,7.93,36.51,11,8.62,2.16,15.22,6.91,21.46,12.54,1.67,1.5,3.95,2.88,3.75,5.67,0,0-.06.06-.09,0l-3.1-2.48a.05.05,0,0,0-.09,0l-.19,1.61a.05.05,0,0,1-.09,0C281.6,69,278.7,66,275.81,63l-1.18.81,6.55,13s0,.06,0,.07L279,78c1.53.21,2.95-.28,4.26-.08,7.66,1.19,11.59,5.39,12.24,13.54.33,4-.79,8.18-1.22,11.9a.05.05,0,0,0,0,.05c.4.24,1.2.51,1.21.8.11,3.47.58,7,0,10.39-.77,4.55-2.36,9-3.59,13.43q.92-4.28,1.85-8.55s-.06-.08-.1,0a9.37,9.37,0,0,0-2.84,4.09c-4,12.22-9.87,23.57-16.53,34.55-.24.39-.05,1,0,2.08,0,.05.07.08.1,0l6.38-8.86c.05.45.3,1,.11,1.34-3.9,6.21-8,12.29-11.69,18.63-1,1.73-3.87,3.38-2,6.06,0,0,0,0,.05,0a13,13,0,0,0,1.92-.27,22.24,22.24,0,0,0,5.15-1.7c1.36-.82,2.24-2.37,3.4-3.53.53-.53,1.4-.77,1.82-1.35,2.61-3.52,5.13-7.1,7.7-10.7a.06.06,0,0,1,.1,0l.45,1a.05.05,0,0,0,.09,0,4.71,4.71,0,0,0,.77-1.22c.28-.93.43-1.91.63-2.87l-.08-.09c1.92,4.14.09,7.28-2.44,9.56,0,0,0,0,0,0,.16.88.43,1.43.26,1.64-2,2.45-2.55,4.71.23,7.13.39.34-.2,2.53-.95,3.23-1.21,1.13-3.12,1.52-4.4,2.61a72.18,72.18,0,0,0-8.09,7.73c-1.79,2.11-2.93,4.76-4.26,7.22-.48.9-.52,2-1,2.92-1.25,2.27-2.83,4.39-3.93,6.72-1.46,3.1-2.63,6.32-6.69,8.24h1.39c-.95,1.91-1.91,3.85-2.88,5.79q-2.55,5.06-5.09,10.11a21.16,21.16,0,0,1-1.76,3.57A29.69,29.69,0,0,0,244,245.1s0,0,0,0h-5.49a.06.06,0,0,1-.06-.06c.23-1.37.45-2.73.67-4.1l.38.15,1-2.65h0c4.72-8.9,9.41-17.73,14.09-26.57l-.78-.82a23.41,23.41,0,0,0-4.11,1.92c-2.8,1.93-5.5,4-8.14,6.17-1.15.94-2.62,2-2.94,3.32-1.3,5.12-2.19,10.34-3.26,15.51a21.67,21.67,0,0,1-.67,2.07c0-4.8,0-9,0-13.21,0-1.15-.07-3.09-.62-3.3a9.78,9.78,0,0,0-4.73-.26,35.55,35.55,0,0,0-5.64,1.64,5.45,5.45,0,0,0-2.16,1.09c-2.62,2.73-4.71,2.64-6.85,0a0,0,0,0,1,0-.05c.34-1.28.53-2.25.85-3.18.6-1.76.52-3.87,2.94-4.63a27.41,27.41,0,0,0,4.06-2,0,0,0,0,0,0-.06l-.38-1.16a.07.07,0,0,0-.06,0l-8.07.51s-.05,0-.05-.05v-8.19c-.21.08.2-.09.44-.19a20.85,20.85,0,0,0-3.08-2.22c-.64-.31-2-.34-2.31.05-1.51,1.92-3.32,3.86-4,6.09a136.12,136.12,0,0,0-3.71,15.7c-1.09,6.14-1.77,12.35-2.62,18.53a.06.06,0,0,1-.06,0H186.82a.07.07,0,0,1-.06,0,7.21,7.21,0,0,1-.41-2.22c.47-3.19,1.12-6.35,1.63-9.54.46-2.85.85-5.71,1.19-8.57a29.44,29.44,0,0,1,.17-3.66c1.16-4.5,2.79-8.9,3.63-13.44,1-5.37,3.94-9.67,6.66-14.31a.06.06,0,0,0,0-.07c-13.41-13.73-26.2-28.13-29.51-48.26a.06.06,0,0,0-.07,0c-3.52,1-6.32,1.79-9.09,2.64-10,3.07-18.77,8.49-27.61,13.79-4.3,2.58-8.69,5.45-10.48,10.12-3,7.8-4.78,16-7.75,23.84-2,5.12-5.08,9.8-7.81,14.89a.06.06,0,0,1-.1,0c-2.44-7.34-4.64-14-7-21a.05.05,0,0,0-.1,0c-.17,1.25-.31,2.32-.45,3.39-.38,3.07-.44,6.22-1.19,9.2-2,7.9-7.65,13.53-12.86,19.42-1.4,1.59-2.92,1.19-4.54.57h0l-15-10.5,0,0C61,203,62.61,194.49,65.94,186c0-.06-.06-.1-.09-.05a81.09,81.09,0,0,0-5.32,9.53c-4.46,9.49-9,19-13.08,28.61-1.48,3.48-1.83,7.44-2.68,11.18,0,0,0,.05,0,.06l.77.17a.06.06,0,0,0,.07,0l2.16-7.8s.09-.05.1,0a11.18,11.18,0,0,1,.63,4c.11,1.39,1,3.08.45,4.1a10.67,10.67,0,0,0-.34,9.36A.06.06,0,0,1,48.6,245.14ZM154.14,68.39s0,0,0,0c1.94-2.36,4-4.66,5.76-7.14.45-.64.07-1.87.07-2.83l-.69-.16c-1.7,3.39-3.41,6.78-5.1,10.19h0c-1.43,4.5-3.8,8.79-3.45,13.58,1-3.13,2.08-6.31,3-9.55A23.8,23.8,0,0,0,154.14,68.39ZM63.57,120.08a.06.06,0,0,0,.06.07c2.8,0,5.42,0,8,0,1,0,2.87.06,3-.36.81-2.21,2.55-1.19,3.91-1.46,7.84-1.52,14.51,3,21.82,4.17,1.67.28,2.86.47,4-1.83a.07.07,0,0,0,0-.07c-2.48-1.73-4.74-4.07-7.5-5a31.42,31.42,0,0,0-10.5-1.44,139.37,139.37,0,0,0-16.83,1.25A7,7,0,0,0,63.57,120.08ZM95.49,98.3a.06.06,0,0,0,.1,0c2.37-2.4,3.82-5.17,8-5.43,3.76-.22,6.45.27,8.84,3.36a.06.06,0,0,0,.1,0c.12-4.07-2.34-6.87-6-7.32C102.24,88.39,96.55,93.13,95.49,98.3ZM77,153.13c3.34-1.84,3.55-1.77,11.22,1.05,0,0,.08,0,.08-.05,0-3.13-2-6.41-4.61-6.9-4.33-.8-4.43,3.15-6.76,5.82A.05.05,0,0,0,77,153.13ZM232.57,64.35a.05.05,0,0,0,.09,0L241,55.31l-1.66.43a.05.05,0,0,1-.06-.07l.69-1.82-.63-.26-2.07,4.3-.67-.35c.54-1.27,1.08-2.54,1.64-3.84a.05.05,0,0,0-.05-.08C234.51,53.49,232.09,58.33,232.57,64.35ZM261.91,76l.7-.05V69.34l.54,0c.19,2.37.39,4.74.61,7.37a.06.06,0,0,0,.1,0c2.25-2.72.87-5.2.06-7.69-.92-2.81-1.79-5.63-2.68-8.45a0,0,0,0,0-.06,0l-.91.11a.06.06,0,0,0,0,.06c.24,1.92.44,3.86.76,5.77.08.47.87.87.88,1.32C262,70.54,261.91,73.28,261.91,76ZM65.55,131a.06.06,0,0,0,0-.06,21.7,21.7,0,0,0-2.73-2.45c-.5-.31-1.7-.42-2-.12-1.42,1.72-2.66,3.57-4,5.39a0,0,0,0,0,.06.07C59.83,132.61,63.88,134.6,65.55,131ZM273,62l-1.29.23a.05.05,0,0,0,0,.06l1.89,8.35-.64.07-.57-.93a0,0,0,0,0-.07,0h0l2.68,7,.71-.18a.06.06,0,0,0,0-.06Q274.34,69.27,273,62A0,0,0,0,0,273,62Zm-22.13,4,3-9.29a.05.05,0,0,0-.08-.06c-3.21,2.25-5.57,7.49-4.68,10.07,0,.1.23.13.44.25l.25-2.34s.08-.07.1,0l.89,1.41A.06.06,0,0,0,250.82,66ZM106.51,126.8c1.7,5.41,3.23,10.26,4.71,14.94a.06.06,0,0,0,.11,0c.35-4.68-2-12.71-4.74-15A.05.05,0,0,0,106.51,126.8Zm-7.86,9.66,4.21.31.38-1.37-5.15-2.5A.05.05,0,0,0,98,133c.29,1.71.43,2.57.58,3.46A.07.07,0,0,0,98.65,136.46ZM268.31,67.3c-.38,3.56,1,6.23,3,6.42a.05.05,0,0,0,.06-.08c-1-2.15-1.95-4.25-2.91-6.36A.06.06,0,0,0,268.31,67.3Z"/><path class="cls-1" d="M291.93,128.45c1.23-4.47,2.82-8.88,3.59-13.43.57-3.37.1-6.92,0-10.39,0-.3-.84-.57-1.24-.82.42-3.72,1.55-7.88,1.22-11.92-.65-8.16-4.58-12.36-12.24-13.55-1.31-.2-2.73.29-4.26.08l2.21-1.15-6.73-13.36,1.09-.75,8.81,9.16.21-1.82,3.26,2.6,0,0c-.5,3.61,2,5.67,4.1,8a20.67,20.67,0,0,1,2.61,4.28c1.54,3,3,6.16,4.42,9.25a3.81,3.81,0,0,1,.45,1.58c0,5.39,3.1,9.29,8.85,10.16,7,1.07,13,4.3,19,7.58,1.22.67,2.56,1.13,3.85,1.68v80.93c0,27-22.26,49-49.71,49H244a29.6,29.6,0,0,1,5.57-12,21.16,21.16,0,0,0,1.76-3.57q2.53-5.06,5.09-10.11l2.88-5.78h-1.39c4.06-1.93,5.23-5.15,6.69-8.25,1.1-2.33,2.68-4.44,3.93-6.72.49-.89.53-2,1-2.92,1.33-2.46,2.47-5.11,4.26-7.22a72.18,72.18,0,0,1,8.09-7.73c1.28-1.09,3.19-1.48,4.4-2.61.75-.7,1.34-2.88.95-3.23-2.78-2.42-2.22-4.67-.23-7.13.17-.21-.1-.77-.26-1.67,2.54-2.28,4.38-5.43,2.46-9.58l1.88,2.31c.82-.85,1.7-1.36,1.89-2a4.23,4.23,0,0,0-.46-2.43,25.15,25.15,0,0,0-1.48-2.75l3.24,2.77a25.05,25.05,0,0,0,.56-4.58,10.83,10.83,0,0,0-1.24-3l3.23,3.33c-.53-3.16,1.66-5.9-1.63-7.27l-1.5,4c-.86,1.61-1.72,3.21-2.57,4.83,0,1.58,0,3.16,0,5.56l-1.56-2.64-.29,2c-.2,1-.35,1.94-.63,2.87a5.66,5.66,0,0,1-.82,1.3l-.53-1.15c-2.6,3.63-5.14,7.23-7.76,10.78-.42.58-1.29.82-1.82,1.35-1.16,1.16-2,2.71-3.4,3.53a22.24,22.24,0,0,1-5.15,1.7,13.39,13.39,0,0,1-1.95.28c-2-2.7.93-4.35,1.94-6.09,3.67-6.34,7.79-12.42,11.69-18.63.19-.31-.06-.88-.11-1.34l-.09.11c1.88-3,3.9-5.92,5.6-9a52.22,52.22,0,0,0,2.46-6.31Zm-12.82,88.6,1.17.22,1.59-5c.28-.87.3-2.12.9-2.54a11.83,11.83,0,0,0,5.48-8.15c.18-1.12,1.24-2.07,1.59-3.19a48.47,48.47,0,0,0,2.41-9.27c.1-.94-2-2.32-3.38-3.16-2.1-1.34-4.23-3-7-2.3a7.3,7.3,0,0,0-3.06,1.74c-.27.26.5,1.45.63,2.25.51,2.86,1.42,5.74,1.31,8.59C280.46,203.19,279.69,210.12,279.11,217.05Z"/><path class="cls-1" d="M81.09,222.28c1.61.63,3.14,1,4.54-.55,5.21-5.9,10.88-11.53,12.86-19.43.75-3,.81-6.13,1.19-9.2.15-1.14.3-2.28.48-3.63l7.08,21.31c2.74-5.13,5.9-9.85,7.87-15,3-7.8,4.76-16,7.75-23.84,1.79-4.67,6.18-7.53,10.48-10.12C142.18,156.52,151,151.1,161,148c2.78-.86,5.6-1.63,9.15-2.66,3.3,20.18,16.12,34.6,29.55,48.35-2.73,4.66-5.68,9-6.68,14.35-.84,4.55-2.47,8.94-3.63,13.44a29.44,29.44,0,0,0-.17,3.66c-.34,2.87-.73,5.73-1.19,8.57-.51,3.19-1.16,6.35-1.63,9.54a7.13,7.13,0,0,0,.42,2.26H104c-.42-2.35-.86-4.69-1.24-7-.6-3.69-2-4.26-5.39-2.23a26.87,26.87,0,0,1-3.56,1.53l-.42-.63,3.29-6.56-2.9-.87c3.43-8.75,7.86-16.93,6.52-26.67-.91,9.66-4.83,17.6-13.48,22.25l3.43,3.84-.61.57Z"/><path d="M81.09,222.28l8.59,7.45.61-.57-3.43-3.84c8.65-4.65,12.57-12.59,13.48-22.25,1.34,9.74-3.09,17.92-6.52,26.67l2.9.87-3.29,6.56.42.63a26.87,26.87,0,0,0,3.56-1.53c3.35-2,4.79-1.46,5.39,2.23.38,2.35.82,4.69,1.24,7H97.19L93,239l-.28,2.61-.75-.08.14-3.06-1.84,2.41-1.18-2.33-1.81,7H49.92c-.18-1.59-2.35-3-.32-4.84a5.59,5.59,0,0,0,1.51-3.16c.91-6.45,1.17-13,2.61-19.34,1.59-7,4.2-13.85,6.37-20.76l1.08.2c-1.34,9.31-4.74,18.85,3.61,27-.53-2.93-1.07-5.86-1.55-8.55l2.6-1.4-2-3.65,2.22.71Q73.57,217,81.09,222.28Z"/><path class="cls-1" d="M198.59,245.54c.86-6.2,1.53-12.43,2.63-18.58a136.12,136.12,0,0,1,3.71-15.7c.68-2.23,2.49-4.17,4-6.09.31-.39,1.67-.36,2.31,0a20.85,20.85,0,0,1,3.08,2.22c-.24.1-.65.27-.44.19v8.25l8.16-.52.42,1.24a27,27,0,0,1-4.1,2c-2.42.76-2.34,2.87-2.94,4.63-.32.94-.52,1.91-.86,3.21,2.15,2.69,4.24,2.79,6.87.06a5.34,5.34,0,0,1,2.16-1.1,35.55,35.55,0,0,1,5.64-1.64A9.78,9.78,0,0,1,234,224c.55.21.6,2.15.62,3.31.07,4.19,0,8.4,0,13.2a20.79,20.79,0,0,0,.67-2.07c1.07-5.17,2-10.39,3.26-15.51.32-1.27,1.79-2.38,2.94-3.32,2.64-2.15,5.34-4.24,8.14-6.17a27.1,27.1,0,0,1,4.36-2l.6.8-14.16,26.7-1,2.66-.38-.15c-.23,1.39-.45,2.77-.68,4.16Z"/><path class="cls-1" d="M66.07,211.77l-2.22-.71,2,3.65-2.6,1.4c.48,2.69,1,5.62,1.55,8.55-8.35-8.17-5-17.71-3.61-27l-1.08-.2c-2.17,6.91-4.78,13.73-6.37,20.76-1.44,6.32-1.7,12.89-2.61,19.34a5.59,5.59,0,0,1-1.51,3.16c-2,1.88.14,3.25.32,4.84H48.67a10.72,10.72,0,0,1,.32-9.43c.53-1-.34-2.71-.45-4.1a10.88,10.88,0,0,0-.69-4.11l-2.22,8-.87-.19c.86-3.76,1.2-7.73,2.69-11.23,4.09-9.65,8.62-19.12,13.08-28.61a83.48,83.48,0,0,1,5.61-10C62.67,194.56,60.91,203.19,66.07,211.77Z"/><path class="cls-1" d="M87.24,245.54l1.81-7,1.18,2.33,1.84-2.41-.14,3.06.75.08L93,239l4.23,6.58Z"/><path class="cls-1" d="M287.84,73.1c.27-2.86-2-4.25-3.74-5.77C277.86,61.7,271.26,57,262.64,54.8c-12.32-3.09-24.34-7.33-36.51-11-10-3.05-20.16-5.8-30.83-5.31-4.88.22-9.75.55-14.63.84l-.33,1,5.34,5.54-.4.43-7.66-5.18-.7.61L178,44.41l-3-2-.44-.84-15.45,12c1.14-2.59,1.9-5.75,3.72-8.12A154.43,154.43,0,0,1,175,31.5c4.25-4.37,9.55-7.21,15.14-9.87a76.62,76.62,0,0,1,20.75-6.55c3.82-.62,7.8-.28,11.69-.56a16.49,16.49,0,0,0,5-1.13c3-1.2,3.59-1,4.41,2.18,6.52,1.39,13.21,2.26,18.81,6.32,5.19,3.76,10.57,7.29,15.54,11.32,6.5,5.29,10.06,12.81,14.37,19.73a92.26,92.26,0,0,1,5.46,9.68c1.51,3.26,2.78,6.71,1.72,10.46Z"/><path class="cls-1" d="M63.55,120.55a7,7,0,0,1,6-4.78,139.37,139.37,0,0,1,16.83-1.25A31.42,31.42,0,0,1,96.84,116c2.77,1,5,3.31,7.54,5.05-1.1,2.34-2.29,2.15-4,1.87-7.31-1.21-14-5.69-21.82-4.17-1.36.27-3.1-.75-3.91,1.46-.15.43-2,.35-3,.36C69,120.58,66.39,120.55,63.55,120.55Z"/><path class="cls-1" d="M291.93,128.45l-3.21,8.07-8.06,15.33.09-.11-6.47,9c0-1.16-.22-1.84,0-2.25,6.66-11,12.52-22.33,16.53-34.55a9.43,9.43,0,0,1,3-4.2C293.18,122.64,292.56,125.55,291.93,128.45Z"/><path class="cls-1" d="M95.46,98.89c1-5.25,6.73-10.11,11.11-9.57,3.71.45,6.19,3.32,6,7.48-2.41-3.19-5.12-3.71-8.93-3.48C99.33,93.58,97.91,96.46,95.46,98.89Z"/><path class="cls-1" d="M76.7,153.68c2.54-2.66,2.52-6.88,7-6.05,2.63.49,4.67,3.83,4.61,7C80.33,151.68,80.33,151.68,76.7,153.68Z"/><path class="cls-1" d="M232.58,64.88c-.53-6.13,1.94-11.06,5.7-10.86l-1.67,3.92.67.35,2.07-4.3.63.26-.73,1.91,1.76-.44Z"/><path class="cls-1" d="M261.91,76.41c0-2.73,0-5.47-.05-8.2,0-.45-.8-.85-.88-1.32-.33-1.93-.52-3.88-.76-5.83l1-.12c.9,2.83,1.77,5.67,2.7,8.49.82,2.52,2.22,5-.15,7.8-.22-2.68-.42-5.1-.62-7.51l-.54,0v6.63Z"/><path class="cls-1" d="M65.57,131.33c-1.7,3.75-5.9,1.59-8.77,2.95,1.33-1.86,2.6-3.78,4.06-5.54.25-.3,1.45-.19,2,.13A21.13,21.13,0,0,1,65.57,131.33Z"/><path class="cls-1" d="M273,62.39,275.67,77l-1,.26-2.85-6.83.49-.25.59,1,.64-.07q-1-4.2-1.9-8.4Z"/><path class="cls-1" d="M250.78,66.49l-1-1.64-.27,2.5c-.21-.12-.41-.15-.44-.25-.9-2.62,1.54-8,4.81-10.16C252.83,60.11,251.88,63.08,250.78,66.49Z"/><path class="cls-1" d="M106.45,127c2.9,2.16,5.33,10.67,4.85,15.38Z"/><path class="cls-1" d="M154.17,68.8l5.12-10.17.69.16c0,1,.38,2.19-.07,2.83-1.78,2.48-3.82,4.78-5.77,7.15Z"/><path class="cls-1" d="M98.61,136.86,98,133.25l5.52,2.68-.38,1.26Z"/><path class="cls-1" d="M154.14,68.77a23.92,23.92,0,0,1-.42,4.09c-.9,3.24-2,6.42-3,9.55-.35-4.79,2-9.08,3.44-13.6Z"/><path class="cls-1" d="M268.33,67.5c1,2.19,2,4.39,3,6.63C269.34,74,267.87,71.22,268.33,67.5Z"/><path d="M279.1,217.08c.58-6.94,1.36-13.88,1.65-20.83.11-2.85-.8-5.73-1.31-8.59-.13-.8-.9-2-.63-2.25a7.3,7.3,0,0,1,3.06-1.74c2.77-.73,4.9,1,7,2.3,1.34.84,3.48,2.22,3.38,3.16a48.47,48.47,0,0,1-2.41,9.27c-.35,1.12-1.41,2.07-1.59,3.19a11.83,11.83,0,0,1-5.48,8.15c-.6.42-.62,1.67-.9,2.54l-1.59,5Z"/><path d="M280.66,151.85l8.06-15.33a52.22,52.22,0,0,1-2.46,6.31C284.56,145.93,282.54,148.86,280.66,151.85Z"/><path d="M293.69,147.4l1.51-4c3.29,1.37,1.1,4.11,1.63,7.27l-3.23-3.32Z"/><path d="M291.12,152.23l2.58-4.82-.1-.1a10.66,10.66,0,0,1,1.24,3,25.05,25.05,0,0,1-.56,4.58l-3.23-2.76Z"/><path d="M289.29,157.14c.08-.58.17-1.16.29-2l1.56,2.64c0-2.4,0-4,0-5.56l-.08-.09a25.75,25.75,0,0,1,1.47,2.74,4.23,4.23,0,0,1,.46,2.43c-.19.68-1.07,1.19-1.89,2l-1.88-2.31Z"/></g><g id="Layer_2" data-name="Layer 2"><path class="cls-1" d="M32.64,55.76,31.23,56l.18-1.38a3.37,3.37,0,0,0,1.86-.8A2.66,2.66,0,0,0,33.74,52l0-12.6a2.5,2.5,0,0,0-.23-1.29,1,1,0,0,0-.88-.33q-.3,0-.6,0l-.42,0-.06-.12.21-1.32,1.35.06q1,0,2,0c.68,0,1.37,0,2.08,0l1.46-.08a7,7,0,0,1,4.38,1.18,4,4,0,0,1,1.53,3.38,4.35,4.35,0,0,1-.92,2.7,6.36,6.36,0,0,1-2.56,1.92,6.93,6.93,0,0,1,3.42,1.68,3.91,3.91,0,0,1,1.22,2.88,4.72,4.72,0,0,1-1,2.86,6.81,6.81,0,0,1-2.59,2.13,7.83,7.83,0,0,1-3.48.8,13.33,13.33,0,0,1-1.86-.15c-1.14-.1-1.88-.15-2.19-.15A14.67,14.67,0,0,0,32.64,55.76Zm3.24-3.48a1.75,1.75,0,0,0,.78,1.62,5.32,5.32,0,0,0,2.64.48,3.9,3.9,0,0,0,2.83-1,4,4,0,0,0,0-5.38,5.53,5.53,0,0,0-3-1.39L36,46.67Zm1.69-7.08c.71.06,1.3.1,1.76.12,0,.06.25,0,.78-.32a4.24,4.24,0,0,0,1.41-1.26,3.77,3.77,0,0,0,.63-2.29,3.3,3.3,0,0,0-1.29-2.85,6.89,6.89,0,0,0-4-.93.49.49,0,0,0-.41.13,1.19,1.19,0,0,0-.13.56q-.18,2.88-.27,6.72Z"/><path class="cls-1" d="M51.18,55.15A5.62,5.62,0,0,1,49,52.8a7.41,7.41,0,0,1-.77-3.46,8.11,8.11,0,0,1,.91-3.78,7.57,7.57,0,0,1,2.45-2.82,5.65,5.65,0,0,1,3.27-1.05,4.6,4.6,0,0,1,3.33,1.11A4.36,4.36,0,0,1,59.28,46a5.18,5.18,0,0,1-.18,1.47l-.4.36H50.43a7.2,7.2,0,0,0,1.15,4.48,3.91,3.91,0,0,0,3.31,1.58A8.69,8.69,0,0,0,58.56,53l.18.06.33.87a15.83,15.83,0,0,1-2.39,1.41,5.28,5.28,0,0,1-2.21.63A6.58,6.58,0,0,1,51.18,55.15ZM56,46.49a1.12,1.12,0,0,0,.61-.21.88.88,0,0,0,.14-.6,2.44,2.44,0,0,0-.64-1.83,2.54,2.54,0,0,0-1.84-.63,3.37,3.37,0,0,0-2.42,1,4.4,4.4,0,0,0-1.27,2.58Z"/><path class="cls-1" d="M61.47,54.74a2.69,2.69,0,0,0,1.18-.6,1.55,1.55,0,0,0,.42-.87,13.64,13.64,0,0,0,.07-1.71V36.83a2.58,2.58,0,0,0-.21-1.26,1,1,0,0,0-.87-.33l-.69.06-.08-.06.12-1a39.75,39.75,0,0,0,4.44-.87l.18.39c-.23.34-.42,2.48-.59,6.42s-.26,8.11-.26,12.51A2.46,2.46,0,0,0,65.43,54a.85.85,0,0,0,.81.39l1.05-.06.06.12L67.1,55.7c-1.31-.06-2.21-.09-2.67-.09a19.68,19.68,0,0,0-3.08.36Z"/><path class="cls-1" d="M79.22,54.83a7.68,7.68,0,0,1-3.13-3.23A10.39,10.39,0,0,1,75,46.7a11,11,0,0,1,1.35-5.42,9.91,9.91,0,0,1,3.74-3.78,10.73,10.73,0,0,1,5.38-1.36,17.69,17.69,0,0,1,2.27.16q1.15.18,2,.33l1,.23.12.18c0,.12-.1.41-.19.87s-.19,1.06-.3,1.8-.2,1.52-.26,2.34l-1.44.12a5.55,5.55,0,0,0,.06-.56c0-.27,0-.57,0-.91q0-2.79-4.41-2.79a6.11,6.11,0,0,0-5.79,3.67,9.79,9.79,0,0,0-.81,4.13,11.49,11.49,0,0,0,.86,4.59A7.08,7.08,0,0,0,81,53.38a6.18,6.18,0,0,0,3.6,1.09,4.65,4.65,0,0,0,3.29-1.16,6.87,6.87,0,0,0,1.81-3.58l1.44-.12-.39,2a29,29,0,0,0-.42,2.9l-.18.27a6.72,6.72,0,0,1-.91.34,17.62,17.62,0,0,1-2.28.59A15.29,15.29,0,0,1,84,56,9.56,9.56,0,0,1,79.22,54.83Z"/><path class="cls-1" d="M93.41,54.74A2.37,2.37,0,0,0,94.7,54a1.85,1.85,0,0,0,.4-1.24V45.17c0-1.08-.38-1.62-1.12-1.62a2.25,2.25,0,0,0-.44,0l-.31.08.12-1.11c.85-.12,1.71-.28,2.6-.48l1.73-.39.15.36a16.5,16.5,0,0,0-.48,3.85c-.15,2.16-.21,4.41-.21,6.77a2.59,2.59,0,0,0,.23,1.27.89.89,0,0,0,.81.41q.33,0,.63,0l.42,0,.06.12-.23,1.29-1-.06c-.5,0-1.06,0-1.65,0a12.2,12.2,0,0,0-1.79.15L93.29,56Zm1.44-17a1.59,1.59,0,0,1-.38-1.08,1.76,1.76,0,0,1,1.76-1.77,1.34,1.34,0,0,1,1.08.45,1.59,1.59,0,0,1,.39,1.08,1.74,1.74,0,0,1-1.77,1.77A1.35,1.35,0,0,1,94.85,37.7Z"/><path class="cls-1" d="M104.56,55.8a12.32,12.32,0,0,1-1.31-.19l-.27-.24V36.83q0-1.62-1.11-1.62a2.67,2.67,0,0,0-.42,0l-.24.06-.09-.09.12-1q1.29-.18,2.67-.48l1.77-.39.19.39a11.53,11.53,0,0,0-.4,3q-.18,2.74-.29,7c.9-.64,1.67-1.15,2.32-1.53a3.5,3.5,0,0,1,1.31-.57,5.67,5.67,0,0,1,3,.81,5.55,5.55,0,0,1,2,2.26,7.37,7.37,0,0,1,.74,3.35,8,8,0,0,1-1,4,7.6,7.6,0,0,1-2.72,2.85,7,7,0,0,1-3.75,1A20.5,20.5,0,0,1,104.56,55.8ZM111.13,53a5.63,5.63,0,0,0,1.16-3.74,7.11,7.11,0,0,0-.53-2.76,5,5,0,0,0-1.44-2,3.18,3.18,0,0,0-2-.73,3.76,3.76,0,0,0-1.54.46,7.32,7.32,0,0,0-1.67,1.16l-.1,8.34a6,6,0,0,0,1.39.45,7.31,7.31,0,0,0,1.55.18A3.93,3.93,0,0,0,111.13,53Z"/><path class="cls-1" d="M119.54,55.13a5.57,5.57,0,0,1-2.05-2.36,7.79,7.79,0,0,1-.74-3.46,8.2,8.2,0,0,1,.92-3.85,7.06,7.06,0,0,1,2.5-2.77,6.49,6.49,0,0,1,3.54-1,5.56,5.56,0,0,1,3,.84,5.64,5.64,0,0,1,2.07,2.35,7.89,7.89,0,0,1,.73,3.47,8.26,8.26,0,0,1-.91,3.86A7,7,0,0,1,126.11,55a6.49,6.49,0,0,1-3.54,1A5.52,5.52,0,0,1,119.54,55.13Zm6.54-2a6.15,6.15,0,0,0,1-3.7,8.74,8.74,0,0,0-.54-3.17A5,5,0,0,0,125,44.09a3.45,3.45,0,0,0-2.21-.78,3.12,3.12,0,0,0-2.67,1.38,6.32,6.32,0,0,0-1,3.75,8.6,8.6,0,0,0,.54,3.15,4.92,4.92,0,0,0,1.5,2.14,3.46,3.46,0,0,0,2.22.77A3.11,3.11,0,0,0,126.08,53.13Z"/></g></svg>
