<svg id="Layer_3" data-name="Layer 3" xmlns="http://www.w3.org/2000/svg" width="45" height="35" viewBox="0 0 45 35"><defs><style>.cls-1{fill:#fff;}</style></defs><title>favicon</title><path d="M7.56,33.51h0a6.38,6.38,0,0,1-6.37-6.38V7.88A6.38,6.38,0,0,1,7.57,1.49H37.43a6.38,6.38,0,0,1,6.38,6.39v8.69h0a3.64,3.64,0,0,1-.49-.22,7.32,7.32,0,0,0-2.44-1,1.26,1.26,0,0,1-1.13-1.33.47.47,0,0,0-.06-.2c-.19-.41-.37-.81-.57-1.21a2.43,2.43,0,0,0-.33-.56c-.27-.31-.59-.57-.53-1.05h0A2,2,0,0,0,38,9.67a13,13,0,0,0-.7-1.26,9.4,9.4,0,0,0-1.85-2.57c-.63-.53-1.32-1-2-1.48a6.06,6.06,0,0,0-2.41-.82h0c-.1-.41-.18-.44-.55-.29A2,2,0,0,1,30,3.4c-.52,0-1.05,0-1.57.08a9.82,9.82,0,0,0-2.66.85,6.45,6.45,0,0,0-1.94,1.29,20.53,20.53,0,0,0-1.56,1.8,5.07,5.07,0,0,0-.46,1h0l2-1.55.06.11h0l.36.26h0L24,7l.1-.08.91.62.06-.07-.63-.66.06-.15,1.85-.11a11.53,11.53,0,0,1,3.95.7c1.57.48,3.11,1,4.69,1.43a6.27,6.27,0,0,1,2.75,1.64c.22.19.51.37.49.73h0l-.39-.32a0,0,0,0,0,0,0l0,.21h0L36.72,9.78l-.15.1.84,1.69h0l-.28.15c.19,0,.38,0,.55,0a1.7,1.7,0,0,1,1.57,1.76A8.56,8.56,0,0,1,39.09,15h0c.06,0,.16.07.16.1a7.72,7.72,0,0,1,0,1.36,18,18,0,0,1-.46,1.75L39,17.14s0,0,0,0a1.23,1.23,0,0,0-.36.53,22.56,22.56,0,0,1-2.12,4.5c0,.05,0,.14,0,.27s0,0,0,0l.81-1.16c0,.06,0,.14,0,.18-.5.81-1,1.6-1.5,2.43-.13.22-.5.44-.25.79h0l.25,0a2.44,2.44,0,0,0,.66-.22A3.21,3.21,0,0,0,37,24c.07-.07.18-.1.23-.17l1-1.4h0l.06.13h0a.54.54,0,0,0,.1-.16c0-.12.05-.25.08-.37h0a1,1,0,0,1-.31,1.24h0c0,.11.06.18,0,.21-.26.32-.33.62,0,.93.05.05,0,.33-.12.42s-.41.2-.57.34a9.92,9.92,0,0,0-1,1,5.11,5.11,0,0,0-.54.94c-.07.12-.07.26-.13.38-.16.3-.37.57-.51.88a1.85,1.85,0,0,1-.86,1.07h.18c-.12.25-.24.5-.37.75l-.65,1.32a2.56,2.56,0,0,1-.23.47,3.85,3.85,0,0,0-.71,1.55h-.72L32,33l.05,0,.12-.34h0L34,29.18l-.1-.11a3.22,3.22,0,0,0-.53.25c-.36.25-.71.52-1,.8-.14.12-.33.27-.37.43-.17.67-.28,1.35-.42,2a1.38,1.38,0,0,1-.09.27c0-.63,0-1.18,0-1.73,0-.15,0-.4-.08-.43a1.38,1.38,0,0,0-.61,0,4.89,4.89,0,0,0-.72.21.84.84,0,0,0-.28.15c-.33.35-.6.34-.88,0h0c0-.17.07-.3.11-.42s.07-.5.38-.6a3.6,3.6,0,0,0,.52-.26h0l-.05-.15h0l-1,.07h0V28.55l.06,0a2.52,2.52,0,0,0-.4-.29c-.08,0-.25,0-.29,0a2.64,2.64,0,0,0-.52.79,18.23,18.23,0,0,0-.47,2c-.14.8-.23,1.61-.34,2.42H25.29a1,1,0,0,1-.05-.29c.06-.41.14-.83.21-1.24s.11-.74.15-1.12c0-.16,0-.32,0-.48.15-.58.36-1.15.47-1.75a5.81,5.81,0,0,1,.85-1.86h0c-1.72-1.79-3.36-3.66-3.78-6.29,0,0,0,0,0,0L22,20.8a16.16,16.16,0,0,0-3.54,1.8,2.84,2.84,0,0,0-1.35,1.32c-.38,1-.61,2.09-1,3.1a17,17,0,0,1-1,1.94h0l-.89-2.73s0,0,0,0,0,.3-.05.44a9.61,9.61,0,0,1-.16,1.2,6.18,6.18,0,0,1-1.65,2.53c-.17.21-.37.16-.58.08h0L9.81,29.11h0a3.61,3.61,0,0,1,0-3.31,0,0,0,0,0,0,0A11.73,11.73,0,0,0,9.09,27c-.57,1.24-1.15,2.47-1.68,3.73a8.86,8.86,0,0,0-.34,1.46h0l.1,0h0l.28-1s0,0,0,0a1.38,1.38,0,0,1,.08.51c0,.18.13.41.06.54a1.41,1.41,0,0,0,0,1.22Zm13.55-23h0c.25-.31.51-.61.74-.93.06-.08,0-.24,0-.37l-.09,0-.66,1.33h0a5.06,5.06,0,0,0-.44,1.77c.13-.41.27-.82.38-1.24A3.19,3.19,0,0,0,21.11,10.48ZM9.48,17.21h1c.14,0,.37,0,.39,0,.1-.29.33-.16.5-.19,1-.2,1.86.39,2.8.54.22,0,.37.06.51-.24h0a4.38,4.38,0,0,0-1-.66,4,4,0,0,0-1.34-.19,17.16,17.16,0,0,0-2.16.17A.89.89,0,0,0,9.48,17.21Zm4.1-2.84a0,0,0,0,0,0,0c.31-.31.49-.67,1-.71a1.15,1.15,0,0,1,1.13.44h0a.87.87,0,0,0-.77-1A1.56,1.56,0,0,0,13.58,14.37ZM11.2,21.52c.43-.24.46-.23,1.44.13,0,0,0,0,0,0a.88.88,0,0,0-.59-.9c-.55-.11-.57.41-.86.76C11.19,21.51,11.2,21.52,11.2,21.52ZM31.17,10s0,0,0,0l1.07-1.18L32,8.83h0l.09-.24-.08,0-.26.56-.09,0,.21-.5h0C31.42,8.53,31.11,9.16,31.17,10Zm3.77,1.52H35V10.6h.07l.07,1h0c.29-.35.11-.68,0-1s-.23-.73-.34-1.1h0l-.11,0h0c0,.25.06.5.1.75,0,.06.11.11.11.17C34.94,10.76,34.94,11.11,34.94,11.47ZM9.74,18.63h0a4.47,4.47,0,0,0-.35-.32c-.07,0-.22-.05-.25,0a7,7,0,0,0-.51.7s0,0,0,0C9,18.84,9.52,19.1,9.74,18.63Zm26.61-9-.16,0h0l.24,1.09h-.08l-.07-.12h0l.34.91.1,0h0l-.34-1.88Zm-2.84.52L33.9,9h0a1.5,1.5,0,0,0-.61,1.32l.06,0,0-.31h0l.11.18ZM15,18.09,15.6,20h0a3,3,0,0,0-.61-2S15,18.08,15,18.09Zm-1,1.26.54,0,0-.17-.66-.33a0,0,0,0,0,0,0l.08.45Zm21.77-9c0,.47.13.82.38.84h0l-.38-.83Z"/><path class="cls-1" d="M38.79,18.25a18,18,0,0,0,.46-1.75,7.72,7.72,0,0,0,0-1.36s-.11-.07-.16-.1a8.77,8.77,0,0,0,.16-1.56,1.7,1.7,0,0,0-1.57-1.76c-.17,0-.36,0-.55,0l.28-.15-.86-1.74.14-.1,1.13,1.2,0-.24.41.34h0c-.06.47.26.73.53,1a2.43,2.43,0,0,1,.33.56c.2.4.38.8.57,1.21a.47.47,0,0,1,.06.2,1.26,1.26,0,0,0,1.13,1.33,7.32,7.32,0,0,1,2.44,1,5.27,5.27,0,0,0,.49.22V27.13a6.38,6.38,0,0,1-6.37,6.38h-4.8A3.83,3.83,0,0,1,33.35,32a2.56,2.56,0,0,0,.23-.47l.65-1.32c.13-.25.25-.5.37-.75h-.18a1.85,1.85,0,0,0,.86-1.07c.14-.31.35-.58.51-.88.06-.12.06-.26.13-.38a5.11,5.11,0,0,1,.54-.94,9.92,9.92,0,0,1,1-1c.16-.14.41-.19.57-.34s.17-.37.12-.42c-.36-.31-.29-.61,0-.93,0,0,0-.1,0-.22A1,1,0,0,0,38.44,22l.24.3c.11-.11.22-.18.24-.27a.62.62,0,0,0-.05-.32,2.43,2.43,0,0,0-.2-.35l.42.36a3.57,3.57,0,0,0,.07-.6,1.29,1.29,0,0,0-.16-.39l.42.43c-.07-.41.21-.77-.21-.95-.06.16-.13.34-.19.53l-.33.63v.72l-.2-.34,0,.26c0,.12,0,.25-.08.37a.82.82,0,0,1-.11.17l-.06-.15-1,1.41c-.05.07-.16.1-.23.17a3.21,3.21,0,0,1-.44.46,2.44,2.44,0,0,1-.66.22.87.87,0,0,1-.25,0c-.25-.35.12-.57.25-.79.47-.83,1-1.62,1.5-2.43,0,0,0-.12,0-.18v0c.24-.39.5-.77.72-1.18a6.65,6.65,0,0,0,.32-.82ZM37.14,29.79l.15,0,.21-.65c0-.11,0-.27.11-.33a1.55,1.55,0,0,0,.71-1.06c0-.15.16-.27.2-.42a6.22,6.22,0,0,0,.31-1.2c0-.13-.26-.31-.43-.42a1.15,1.15,0,0,0-.9-.3.9.9,0,0,0-.39.23s.06.19.08.29a5.5,5.5,0,0,1,.16,1.12C37.32,28,37.22,28.89,37.14,29.79Z"/><path class="cls-1" d="M11.73,30.48c.21.08.4.13.58-.08A6.18,6.18,0,0,0,14,27.87a9.61,9.61,0,0,0,.16-1.2c0-.15,0-.29.06-.47L15.09,29a20.27,20.27,0,0,0,1-2c.38-1,.61-2.09,1-3.1a2.84,2.84,0,0,1,1.35-1.32A16.16,16.16,0,0,1,22,20.8l1.17-.35c.43,2.63,2.07,4.51,3.8,6.3a6,6,0,0,0-.86,1.87c-.11.6-.32,1.17-.47,1.75,0,.16,0,.32,0,.48,0,.38-.09.75-.15,1.12s-.15.83-.21,1.24a1.11,1.11,0,0,0,.05.3H14.68c-.06-.31-.11-.61-.16-.92-.08-.48-.26-.56-.69-.29-.14.08-.31.13-.46.2l0-.08.42-.86-.37-.11A7,7,0,0,0,14.2,28a3.42,3.42,0,0,1-1.73,2.9l.44.5-.08.08Z"/><path d="M11.73,30.48l1.1,1,.08-.08-.44-.5A3.42,3.42,0,0,0,14.2,28a7,7,0,0,1-.83,3.48l.37.11-.42.86,0,.08c.15-.07.32-.12.46-.2.43-.27.61-.19.69.29.05.31.1.61.16.92H13.8l-.55-.86,0,.34h-.1l0-.4-.24.31-.15-.3-.23.92H7.73c0-.21-.3-.39,0-.64a.71.71,0,0,0,.19-.41c.12-.84.16-1.69.34-2.52s.54-1.8.82-2.7l.14,0c-.18,1.21-.61,2.45.46,3.52l-.2-1.12.33-.18L9.52,29l.28.1Z"/><path class="cls-1" d="M26.81,33.51c.11-.81.2-1.62.34-2.43a18.23,18.23,0,0,1,.47-2,2.64,2.64,0,0,1,.52-.79c0-.06.21-.05.29,0a2.52,2.52,0,0,1,.4.29l-.06,0v1.08l1.05-.07.05.16a3.67,3.67,0,0,1-.52.27c-.31.1-.3.37-.38.6s-.07.25-.11.42c.28.35.54.36.88,0a.84.84,0,0,1,.28-.15,4.89,4.89,0,0,1,.72-.21,1.38,1.38,0,0,1,.61,0c.07,0,.08.28.08.43,0,.55,0,1.1,0,1.73a1.38,1.38,0,0,0,.09-.27c.14-.68.25-1.36.42-2,0-.16.23-.31.37-.43.34-.28.69-.55,1-.8a3.61,3.61,0,0,1,.56-.27l.08.11-1.82,3.48-.12.34L32,33l-.09.55Z"/><path class="cls-1" d="M9.8,29.11,9.52,29l.25.48-.33.18.2,1.12c-1.07-1.07-.64-2.31-.46-3.52l-.14,0c-.28.9-.62,1.79-.82,2.7S8,31.62,7.88,32.46a.71.71,0,0,1-.19.41c-.26.25,0,.43,0,.64H7.57a1.43,1.43,0,0,1,0-1.23c.07-.13,0-.36-.06-.54a1.46,1.46,0,0,0-.08-.53l-.29,1-.11,0a9,9,0,0,1,.34-1.47C7.94,29.5,8.52,28.27,9.09,27a12.85,12.85,0,0,1,.72-1.3A3.67,3.67,0,0,0,9.8,29.11Z"/><path class="cls-1" d="M12.52,33.51l.23-.92.15.3.24-.31,0,.4h.1l0-.34.55.86Z"/><path class="cls-1" d="M38.26,11c0-.38-.26-.56-.48-.75A6.27,6.27,0,0,0,35,8.65c-1.58-.4-3.12-1-4.69-1.43a11.53,11.53,0,0,0-3.95-.7l-1.88.11,0,.14.68.72,0,0-1-.67L24,7l.14.35L23.79,7l-.06-.11-2,1.56a4.76,4.76,0,0,1,.47-1.06,20.53,20.53,0,0,1,1.56-1.8,6.45,6.45,0,0,1,1.94-1.29,9.82,9.82,0,0,1,2.66-.85c.49-.08,1,0,1.5-.08a2,2,0,0,0,.64-.14c.38-.16.46-.13.57.28a6.11,6.11,0,0,1,2.41.82c.67.49,1.36.95,2,1.48a9.4,9.4,0,0,1,1.85,2.57A13,13,0,0,1,38,9.67,2,2,0,0,1,38.26,11Z"/><path class="cls-1" d="M9.48,17.22a.9.9,0,0,1,.77-.62,17.16,17.16,0,0,1,2.16-.17,4,4,0,0,1,1.34.19,4.38,4.38,0,0,1,1,.66c-.14.3-.29.28-.51.24-.94-.15-1.79-.74-2.8-.54-.17,0-.4-.1-.5.19,0,.06-.25,0-.39,0Z"/><path class="cls-1" d="M38.79,18.25l-.41,1.05-1,2v0l-.83,1.18a.87.87,0,0,1,0-.3,22.56,22.56,0,0,0,2.12-4.5,1.22,1.22,0,0,1,.38-.55Z"/><path class="cls-1" d="M13.58,14.4A1.54,1.54,0,0,1,15,13.15a.87.87,0,0,1,.77,1,1.13,1.13,0,0,0-1.14-.46C14.07,13.71,13.89,14.08,13.58,14.4Z"/><path class="cls-1" d="M11.17,21.54c.32-.35.32-.9.89-.79a.9.9,0,0,1,.59.91C11.63,21.28,11.63,21.28,11.17,21.54Z"/><path class="cls-1" d="M31.17,10c-.07-.8.25-1.44.73-1.42l-.21.51.09,0L32,8.55l.08,0L32,8.83l.22-.06Z"/><path class="cls-1" d="M34.94,11.47c0-.36,0-.71,0-1.07,0-.06-.1-.11-.11-.17,0-.25-.07-.51-.1-.76l.13,0c.11.37.23.74.34,1.11s.29.65,0,1l-.07-1H35v.86Z"/><path class="cls-1" d="M9.74,18.63c-.22.48-.76.2-1.13.38.18-.24.34-.49.53-.72,0,0,.18,0,.25,0A2.56,2.56,0,0,1,9.74,18.63Z"/><path class="cls-1" d="M36.36,9.64l.34,1.9-.13,0-.37-.89.07,0,.07.13h.08l-.24-1.1Z"/><path class="cls-1" d="M33.51,10.18,33.38,10l0,.33-.06,0a1.5,1.5,0,0,1,.62-1.33Z"/><path class="cls-1" d="M15,18.06a3,3,0,0,1,.62,2Z"/><path class="cls-1" d="M21.11,10.48l.66-1.33.09,0c0,.13.05.29,0,.37-.23.32-.49.62-.74.93Z"/><path class="cls-1" d="M14,19.34l-.08-.46.71.34,0,.17Z"/><path class="cls-1" d="M21.11,10.47a3.19,3.19,0,0,1-.06.54c-.11.42-.25.83-.38,1.24a5.06,5.06,0,0,1,.44-1.77Z"/><path class="cls-1" d="M35.76,10.31l.39.86C35.89,11.16,35.7,10.79,35.76,10.31Z"/><path d="M37.14,29.8c.08-.91.18-1.81.21-2.72A5.5,5.5,0,0,0,37.19,26c0-.1-.12-.26-.08-.29a.9.9,0,0,1,.39-.23,1.15,1.15,0,0,1,.9.3c.17.11.44.29.43.42a6.22,6.22,0,0,1-.31,1.2c0,.15-.18.27-.2.42a1.55,1.55,0,0,1-.71,1.06c-.07.06-.08.22-.11.33l-.21.65Z"/><path d="M37.34,21.3l1-2a6.65,6.65,0,0,1-.32.82C37.84,20.53,37.58,20.91,37.34,21.3Z"/><path d="M39,20.72l.19-.53c.42.18.14.54.21.95L39,20.71Z"/><path d="M38.69,21.35l.33-.63h0a1.29,1.29,0,0,1,.16.39,3.57,3.57,0,0,1-.07.6l-.41-.36Z"/><path d="M38.45,22l0-.26.2.34v-.72h0a3.9,3.9,0,0,1,.19.35.62.62,0,0,1,.05.32c0,.09-.13.16-.24.27l-.24-.3Z"/></svg>
