<svg id="Layer_3" data-name="Layer 3" xmlns="http://www.w3.org/2000/svg" width="175" height="135" viewBox="0 0 175 135"><defs><style>.cls-1{fill:#fff;}</style></defs><title>logo_mobile</title><path d="M25.54,133.92h0A26.46,26.46,0,0,1-.92,107.46V27.58a26.5,26.5,0,0,1,26.5-26.5H149.47A26.5,26.5,0,0,1,176,27.58V63.65s0,0,0,0c-.68-.29-1.38-.54-2-.89-3.2-1.77-6.39-3.52-10.11-4.1a5.18,5.18,0,0,1-4.71-5.49,2.22,2.22,0,0,0-.24-.86c-.77-1.67-1.54-3.35-2.36-5A10.74,10.74,0,0,0,155.11,45c-1.1-1.28-2.44-2.4-2.18-4.35h0c.56-2-.11-3.89-.92-5.65a48.78,48.78,0,0,0-2.91-5.24c-2.29-3.74-4.19-7.81-7.65-10.67-2.65-2.18-5.51-4.08-8.28-6.12-3-2.19-6.53-2.67-10-3.41a0,0,0,0,1,0,0c-.43-1.69-.76-1.81-2.31-1.18a8.37,8.37,0,0,1-2.41.61c-2.16.18-4.37,0-6.49.32a40.26,40.26,0,0,0-11,3.54,26.91,26.91,0,0,0-8.06,5.34,83.61,83.61,0,0,0-6.45,7.5A19.4,19.4,0,0,0,84.45,30s0,.05,0,0l8.14-6.4.23.45h0l1.49,1a0,0,0,0,0,0,0l-.5-1.28.44-.35L98.1,26l.24-.28L95.74,23l.23-.6c2.57-.15,5.13-.33,7.69-.44,5.69-.27,11.07,1.22,16.42,2.86,6.48,2,12.88,4.3,19.44,6,4.59,1.17,8.11,3.74,11.43,6.78.89.81,2.1,1.56,2,3.06a0,0,0,0,1,0,0l-1.65-1.34a0,0,0,0,0-.05,0l-.1.87s0,0,0,0l-4.52-4.77-.62.44,3.49,7a.06.06,0,0,1,0,0l-1.16.61c.81.11,1.57-.15,2.27,0,4.08.64,6.17,2.91,6.52,7.32.17,2.18-.42,4.42-.65,6.43a0,0,0,0,0,0,0c.22.13.64.27.65.43a29.31,29.31,0,0,1,0,5.62,74.61,74.61,0,0,1-1.91,7.26l1-4.62s0,0,0,0a5.08,5.08,0,0,0-1.51,2.21,91.87,91.87,0,0,1-8.8,18.68c-.13.21,0,.56,0,1.13,0,0,0,0,.05,0l3.4-4.79c0,.25.16.56.05.73C147.15,87.28,145,90.57,143,94c-.54.94-2.06,1.83-1.05,3.28h0a6.35,6.35,0,0,0,1-.15,11.41,11.41,0,0,0,2.75-.92,11.39,11.39,0,0,0,1.81-1.91c.28-.28.74-.41,1-.73,1.39-1.9,2.73-3.83,4.1-5.78a0,0,0,0,1,.05,0l.24.53a0,0,0,0,0,.05,0,2.53,2.53,0,0,0,.41-.65c.15-.51.23-1,.33-1.56l0-.05c1,2.24.05,3.94-1.3,5.17a0,0,0,0,0,0,0c.09.47.23.77.14.88-1.06,1.33-1.36,2.55.12,3.86.21.19-.1,1.37-.5,1.75-.65.61-1.67.82-2.35,1.41a37.75,37.75,0,0,0-4.3,4.18,21,21,0,0,0-2.27,3.91c-.26.48-.28,1.09-.54,1.57-.67,1.23-1.51,2.37-2.09,3.64-.78,1.67-1.41,3.41-3.57,4.45h.74c-.5,1-1,2.08-1.53,3.13-.9,1.82-1.81,3.64-2.71,5.47a11.49,11.49,0,0,1-.94,1.93,16.1,16.1,0,0,0-3,6.45s0,0,0,0h-2.92a0,0,0,0,1,0,0l.36-2.22.2.08.51-1.43h0c2.51-4.81,5-9.58,7.5-14.36l-.42-.45a13.25,13.25,0,0,0-2.18,1c-1.5,1-2.93,2.18-4.34,3.34-.61.51-1.39,1.1-1.56,1.79-.69,2.77-1.17,5.59-1.74,8.39a11,11,0,0,1-.36,1.12c0-2.6,0-4.87,0-7.14,0-.62,0-1.68-.33-1.79a5.21,5.21,0,0,0-2.52-.14,19.06,19.06,0,0,0-3,.89,2.68,2.68,0,0,0-1.15.59c-1.4,1.48-2.51,1.43-3.65,0,0,0,0,0,0,0,.18-.7.29-1.22.46-1.72.32-1,.27-2.1,1.56-2.51a14.11,14.11,0,0,0,2.16-1.09s0,0,0,0l-.21-.63,0,0-4.3.28a0,0,0,0,1,0,0v-4.43l.24-.1a10.21,10.21,0,0,0-1.64-1.2c-.34-.17-1.07-.19-1.23,0a11.22,11.22,0,0,0-2.13,3.3,72.4,72.4,0,0,0-2,8.48c-.59,3.32-.95,6.68-1.4,10l0,0H99.14l0,0a3.74,3.74,0,0,1-.23-1.2c.26-1.73.6-3.44.87-5.16.25-1.54.46-3.08.64-4.63a16,16,0,0,1,.09-2c.61-2.43,1.48-4.81,1.93-7.27.53-2.9,2.1-5.23,3.55-7.74a0,0,0,0,0,0,0C98.82,98.46,92,90.68,90.24,79.79c0,0,0,0,0,0-1.88.55-3.37,1-4.84,1.43-5.32,1.66-10,4.59-14.7,7.45-2.3,1.4-4.63,2.95-5.59,5.48C63.49,98.34,62.54,102.8,61,107a73.24,73.24,0,0,1-4.15,8s0,0,0,0L53,103.72s-.05,0-.05,0c-.09.68-.17,1.26-.24,1.83a40.82,40.82,0,0,1-.63,5c-1.06,4.27-4.08,7.32-6.85,10.5-.75.86-1.56.64-2.42.31h0l-8-5.67h0c-2.69-4.55-1.84-9.12-.07-13.72,0,0,0-.06-.05,0a45.73,45.73,0,0,0-2.83,5.15c-2.37,5.14-4.79,10.26-7,15.47a36.5,36.5,0,0,0-1.42,6.05s0,0,0,0l.41.09s0,0,0,0c.39-1.4.77-2.81,1.16-4.21,0,0,0,0,.05,0a6.34,6.34,0,0,1,.34,2.14c0,.76.52,1.67.24,2.22a5.84,5.84,0,0,0-.19,5.06S25.56,133.92,25.54,133.92Zm56.2-95.57v0c1-1.27,2.12-2.52,3.06-3.86.25-.34,0-1,0-1.52l-.37-.09c-.9,1.83-1.81,3.66-2.71,5.51h0c-.76,2.43-2,4.75-1.84,7.34C80.46,44,81,42.3,81.52,40.55A13.23,13.23,0,0,0,81.74,38.35ZM33.51,66.3s0,0,0,0c1.49,0,2.89,0,4.28,0,.56,0,1.53,0,1.61-.2.43-1.19,1.35-.64,2.08-.79,4.17-.82,7.73,1.6,11.62,2.26.89.15,1.52.25,2.1-1,0,0,0,0,0,0-1.32-.94-2.53-2.2-4-2.72a16.69,16.69,0,0,0-5.59-.77,72.72,72.72,0,0,0-9,.67A3.75,3.75,0,0,0,33.51,66.3Zm17-11.78a0,0,0,0,0,.05,0c1.26-1.3,2-2.8,4.29-2.93,2-.13,3.43.14,4.7,1.81a0,0,0,0,0,.06,0,3.61,3.61,0,0,0-3.2-4C54.1,49.16,51.07,51.73,50.51,54.52ZM40.65,84.17c1.78-1,1.89-1,6,.57,0,0,0,0,0,0,0-1.69-1.07-3.47-2.45-3.73-2.31-.43-2.36,1.71-3.6,3.15A0,0,0,1,0,40.65,84.17Zm82.86-48s0,0,0,0L128,31.28l-.88.23s0,0,0,0l.37-1-.34-.14L126,32.67l-.36-.19.87-2.08a0,0,0,0,0,0,0C124.54,30.3,123.25,32.91,123.51,36.17Zm15.62,6.3.38,0V38.86h.28l.33,4a0,0,0,0,0,0,0c1.2-1.47.47-2.81,0-4.16-.49-1.51-.95-3-1.42-4.56l0,0-.48.06s0,0,0,0c.12,1,.23,2.09.4,3.12,0,.26.46.47.47.72C139.15,39.51,139.13,41,139.13,42.47ZM34.56,72.19a0,0,0,0,0,0,0,12.49,12.49,0,0,0-1.45-1.32c-.27-.17-.91-.23-1-.06-.76.92-1.42,1.93-2.11,2.91,0,0,0,0,0,0C31.52,73.07,33.67,74.15,34.56,72.19ZM145,34.89l-.68.13s0,0,0,0l1,4.52-.34,0-.3-.5h0l1.43,3.78.37-.1s0,0,0,0L145,34.92A0,0,0,0,0,145,34.89Zm-11.78,2.16c.56-1.79,1.06-3.36,1.58-5a0,0,0,0,0,0,0c-1.71,1.22-3,4.05-2.49,5.45,0,.05.12.07.24.13l.13-1.27s0,0,0,0l.47.76A0,0,0,0,0,133.23,37.05ZM56.38,69.94,58.88,78s.06,0,.06,0c.19-2.53-1-6.88-2.52-8.11C56.4,69.88,56.37,69.91,56.38,69.94Zm-4.19,5.22,2.24.16.2-.74-2.74-1.35s0,0,0,0l.32,1.86S52.18,75.16,52.19,75.16Zm90.35-37.4c-.2,1.93.55,3.37,1.58,3.47,0,0,0,0,0,0l-1.55-3.44A0,0,0,0,0,142.54,37.76Z"/><path class="cls-1" d="M155.12,70.61A74.61,74.61,0,0,0,157,63.35a29.31,29.31,0,0,0,0-5.62c0-.16-.45-.31-.67-.44.23-2,.83-4.26.66-6.45-.35-4.41-2.44-6.68-6.52-7.32-.7-.11-1.46.15-2.27,0l1.18-.62-3.59-7.23.58-.41,4.69,5,.12-1,1.73,1.41h0c-.27,1.95,1.08,3.07,2.18,4.35a10.74,10.74,0,0,1,1.39,2.31c.82,1.65,1.59,3.33,2.36,5a2.22,2.22,0,0,1,.24.86,5.18,5.18,0,0,0,4.71,5.49c3.72.58,6.91,2.33,10.11,4.1.66.36,1.37.61,2.05.91v43.76a26.47,26.47,0,0,1-26.47,26.47H129.6a16.1,16.1,0,0,1,3-6.47,11.49,11.49,0,0,0,.94-1.93c.9-1.83,1.81-3.65,2.71-5.47.52-1,1-2.1,1.53-3.13H137c2.16-1,2.79-2.78,3.57-4.45.58-1.27,1.42-2.41,2.09-3.64.26-.48.28-1.09.54-1.57a21,21,0,0,1,2.27-3.91,37.75,37.75,0,0,1,4.3-4.18c.68-.59,1.7-.8,2.35-1.41.4-.38.71-1.56.5-1.75-1.48-1.31-1.18-2.53-.12-3.86.09-.11-.06-.41-.14-.9,1.35-1.23,2.33-2.93,1.31-5.18l1,1.25c.44-.46.91-.73,1-1.1a2.44,2.44,0,0,0-.24-1.32c-.21-.51-.53-1-.79-1.48l1.72,1.5a13.52,13.52,0,0,0,.3-2.48A5.82,5.82,0,0,0,156,80.8l1.72,1.8c-.28-1.71.88-3.19-.87-3.93-.23.64-.52,1.41-.8,2.19-.45.87-.91,1.74-1.37,2.61,0,.86,0,1.71,0,3l-.83-1.43-.16,1.07c-.1.52-.18,1-.33,1.56a3.54,3.54,0,0,1-.44.7l-.28-.62c-1.38,2-2.74,3.91-4.13,5.82-.23.32-.69.45-1,.73a11.39,11.39,0,0,1-1.81,1.91,11.41,11.41,0,0,1-2.75.92,6.63,6.63,0,0,1-1,.15c-1-1.46.5-2.35,1-3.29,1.95-3.43,4.15-6.72,6.22-10.07.11-.17,0-.48-.05-.73l0,.06c1-1.62,2.08-3.2,3-4.87A28.73,28.73,0,0,0,153.41,75Zm-6.83,47.91.62.12c.29-.9.57-1.8.85-2.7.15-.47.16-1.15.48-1.38a6.39,6.39,0,0,0,2.92-4.4c.1-.61.66-1.12.85-1.73a26.9,26.9,0,0,0,1.28-5c.05-.51-1.09-1.25-1.8-1.71-1.12-.72-2.25-1.64-3.73-1.24a3.78,3.78,0,0,0-1.62.94c-.15.14.26.78.33,1.21a22.06,22.06,0,0,1,.69,4.65C149,111,148.6,114.77,148.29,118.52Z"/><path class="cls-1" d="M42.84,121.35c.86.33,1.67.55,2.42-.31,2.77-3.18,5.79-6.23,6.85-10.5a40.82,40.82,0,0,0,.63-5c.08-.61.16-1.23.25-2l3.78,11.52A72.6,72.6,0,0,0,61,107c1.59-4.21,2.54-8.67,4.13-12.88,1-2.53,3.29-4.08,5.59-5.48,4.7-2.86,9.38-5.79,14.7-7.45,1.48-.47,3-.89,4.87-1.44C92,90.67,98.82,98.46,106,105.9c-1.46,2.52-3,4.85-3.56,7.76-.45,2.46-1.32,4.84-1.93,7.27a16,16,0,0,0-.09,2c-.18,1.55-.39,3.09-.64,4.63-.27,1.72-.61,3.43-.87,5.16a4.16,4.16,0,0,0,.23,1.22H55.06c-.22-1.27-.46-2.53-.66-3.8-.32-2-1.09-2.31-2.87-1.21a16.88,16.88,0,0,1-1.89.83l-.23-.34,1.75-3.55-1.54-.47c1.82-4.73,4.19-9.15,3.47-14.42-.49,5.22-2.57,9.51-7.18,12l1.83,2.08-.32.3Z"/><path d="M42.84,121.35l4.58,4,.32-.3L45.91,123c4.61-2.52,6.69-6.81,7.18-12,.72,5.27-1.65,9.69-3.47,14.42l1.54.47-1.75,3.55.23.34a16.88,16.88,0,0,0,1.89-.83c1.78-1.1,2.55-.79,2.87,1.21.2,1.27.44,2.53.66,3.8H51.42l-2.26-3.56L49,131.77l-.4,0,.08-1.65-1,1.3-.63-1.26-1,3.8H26.24c-.1-.86-1.25-1.6-.17-2.62a3.08,3.08,0,0,0,.81-1.71c.48-3.48.62-7,1.38-10.45.85-3.81,2.24-7.49,3.4-11.23l.57.11c-.71,5-2.52,10.19,1.92,14.61L33.33,118l1.38-.76-1.05-2,1.18.38Z"/><path class="cls-1" d="M105.41,133.92c.46-3.35.82-6.72,1.41-10a72.4,72.4,0,0,1,2-8.48,11.22,11.22,0,0,1,2.13-3.3c.16-.21.89-.19,1.23,0a10.21,10.21,0,0,1,1.64,1.2l-.24.1v4.46l4.35-.28.22.67a13.5,13.5,0,0,1-2.18,1.1c-1.29.41-1.24,1.56-1.56,2.51-.17.5-.28,1-.46,1.73,1.14,1.46,2.26,1.51,3.66,0a2.68,2.68,0,0,1,1.15-.59,19.06,19.06,0,0,1,3-.89,5.21,5.21,0,0,1,2.52.14c.29.11.32,1.17.33,1.79,0,2.27,0,4.54,0,7.14a11,11,0,0,0,.36-1.12c.57-2.8,1-5.62,1.74-8.39.17-.69,1-1.28,1.56-1.79,1.41-1.16,2.84-2.29,4.34-3.34a15,15,0,0,1,2.32-1.1l.32.44-7.54,14.44-.51,1.43-.2-.08-.36,2.25Z"/><path class="cls-1" d="M34.84,115.66l-1.18-.38,1.05,2-1.38.76.82,4.62c-4.44-4.42-2.63-9.57-1.92-14.61l-.57-.11c-1.16,3.74-2.55,7.42-3.4,11.23-.76,3.42-.9,7-1.38,10.45a3.08,3.08,0,0,1-.81,1.71c-1.08,1,.07,1.76.17,2.62h-.66a5.83,5.83,0,0,1,.17-5.1c.28-.55-.19-1.46-.24-2.22a6,6,0,0,0-.37-2.22L24,128.71l-.47-.1a36.87,36.87,0,0,1,1.43-6.08c2.18-5.21,4.6-10.33,7-15.47a45.74,45.74,0,0,1,3-5.4C33,106.36,32.09,111,34.84,115.66Z"/><path class="cls-1" d="M46.12,133.92l1-3.8.63,1.26,1-1.3-.08,1.65.4,0,.15-1.41,2.26,3.56Z"/><path class="cls-1" d="M152.94,40.68c.14-1.55-1.09-2.3-2-3.12-3.32-3-6.84-5.61-11.43-6.78-6.56-1.66-13-4-19.44-6-5.35-1.64-10.73-3.13-16.42-2.86-2.6.12-5.19.3-7.79.45l-.18.55,2.85,3-.21.23-4.08-2.8-.38.33.57,1.46-1.58-1.1-.23-.46L84.4,30.08a21.05,21.05,0,0,1,2-4.39,83.61,83.61,0,0,1,6.45-7.5,26.91,26.91,0,0,1,8.06-5.34,40.26,40.26,0,0,1,11-3.54c2-.34,4.16-.15,6.23-.3a8.92,8.92,0,0,0,2.64-.62c1.58-.65,1.91-.53,2.34,1.18,3.48.75,7,1.22,10,3.42,2.77,2,5.63,3.94,8.28,6.12,3.46,2.86,5.36,6.93,7.65,10.67A48.78,48.78,0,0,1,152,35c.81,1.76,1.48,3.62.92,5.65Z"/><path class="cls-1" d="M33.5,66.34a3.75,3.75,0,0,1,3.17-2.59,72.72,72.72,0,0,1,9-.67,16.69,16.69,0,0,1,5.59.77c1.47.52,2.68,1.8,4,2.74-.58,1.26-1.22,1.16-2.11,1-3.89-.66-7.45-3.08-11.62-2.26-.73.15-1.65-.4-2.08.79-.08.23-1,.19-1.61.2C36.41,66.35,35,66.34,33.5,66.34Z"/><path class="cls-1" d="M155.12,70.61,153.41,75l-4.29,8.29,0-.06c-1.08,1.51-2.15,3-3.45,4.87,0-.63-.12-1,0-1.22a91.87,91.87,0,0,0,8.8-18.68,5.11,5.11,0,0,1,1.58-2.27C155.79,67.47,155.45,69,155.12,70.61Z"/><path class="cls-1" d="M50.49,54.62c.51-2.83,3.58-5.46,5.92-5.17a3.62,3.62,0,0,1,3.2,4c-1.29-1.73-2.73-2-4.76-1.88C52.55,51.76,51.79,53.31,50.49,54.62Z"/><path class="cls-1" d="M40.5,84.25c1.35-1.44,1.34-3.72,3.72-3.27,1.4.27,2.48,2.07,2.45,3.77C42.43,83.17,42.43,83.17,40.5,84.25Z"/><path class="cls-1" d="M123.51,36.24c-.28-3.32,1-6,3-5.88l-.89,2.12.36.19,1.1-2.32.34.14-.39,1,.93-.24Z"/><path class="cls-1" d="M139.13,42.47c0-1.48,0-3,0-4.43,0-.25-.43-.46-.47-.72-.18-1-.28-2.1-.41-3.15l.54-.06c.47,1.53.94,3.06,1.43,4.58s1.19,2.73-.08,4.22c-.12-1.45-.22-2.75-.33-4.06h-.28v3.59Z"/><path class="cls-1" d="M34.57,72.17c-.9,2-3.13.86-4.67,1.59.71-1,1.39-2,2.17-3,.13-.17.77-.11,1,.06A12,12,0,0,1,34.57,72.17Z"/><path class="cls-1" d="M145,34.89c.47,2.62,1,5.25,1.42,7.88l-.55.14c-.5-1.23-1-2.47-1.52-3.7l.26-.13.32.52.34,0-1-4.54Z"/><path class="cls-1" d="M133.21,37.11l-.55-.89-.14,1.35c-.12-.06-.23-.08-.24-.13-.48-1.42.82-4.31,2.56-5.5C134.3,33.66,133.79,35.26,133.21,37.11Z"/><path class="cls-1" d="M56.35,69.84c1.54,1.17,2.83,5.77,2.58,8.32Z"/><path class="cls-1" d="M81.76,38.36q1.36-2.76,2.72-5.5l.37.09c0,.51.21,1.18,0,1.52-.94,1.35-2,2.59-3.07,3.87Z"/><path class="cls-1" d="M52.17,75.15l-.33-1.94,2.95,1.45-.21.67Z"/><path class="cls-1" d="M81.74,38.34a13.35,13.35,0,0,1-.22,2.21C81,42.3,80.46,44,79.93,45.71c-.18-2.59,1.08-4.91,1.83-7.35Z"/><path class="cls-1" d="M142.55,37.65l1.62,3.59C143.09,41.18,142.31,39.66,142.55,37.65Z"/><path d="M148.29,118.53c.31-3.75.72-7.5.87-11.26a22.06,22.06,0,0,0-.69-4.65c-.07-.43-.48-1.07-.33-1.21a3.78,3.78,0,0,1,1.62-.94c1.48-.4,2.61.52,3.73,1.24.71.46,1.85,1.2,1.8,1.71a26.9,26.9,0,0,1-1.28,5c-.19.61-.75,1.12-.85,1.73a6.39,6.39,0,0,1-2.92,4.4c-.32.23-.33.91-.48,1.38-.28.9-.56,1.8-.85,2.7Z"/><path d="M149.12,83.26,153.41,75a28.73,28.73,0,0,1-1.31,3.42C151.2,80.06,150.12,81.64,149.12,83.26Z"/><path d="M156.06,80.86l.8-2.19c1.75.74.59,2.22.87,3.93L156,80.81Z"/><path d="M154.69,83.47c.46-.87.92-1.74,1.37-2.61l-.05,0a5.65,5.65,0,0,1,.66,1.63,13.52,13.52,0,0,1-.3,2.48l-1.72-1.5Z"/><path d="M153.71,86.12l.16-1.07.83,1.43c0-1.3,0-2.15,0-3l0,0c.26.49.58,1,.79,1.48a2.44,2.44,0,0,1,.24,1.32c-.1.37-.57.64-1,1.1l-1-1.25Z"/></svg>
