<svg xmlns="http://www.w3.org/2000/svg" width="705" height="195" viewBox="0 0 705 195"><defs><style>.cls-1{fill:#b2d3e6;}.cls-2{fill:#fff;}</style></defs><title>logo_done</title><g id="Layer_1" data-name="Layer 1"><rect class="cls-1" width="705" height="195"/><path d="M39.64,76.23A20,20,0,0,1,35.13,70L26.64,53.24H19.82l-.18,12A18.29,18.29,0,0,0,20.08,70a2.68,2.68,0,0,0,1.66,1.89,15,15,0,0,0,4.2.54l.18.36-.79,4.59q-1.32-.09-4.77-.18t-6.87-.09c-1.87,0-3.82,0-5.86.14s-3.36.16-3.94.22l.79-5q3.93-.45,5.21-1.89t1.26-5.31l.09-36.45a7.28,7.28,0,0,0-.65-3.73,2.72,2.72,0,0,0-2.41-.95,18,18,0,0,0-1.84.09q-.87.09-1.14.09l-.35-.45.7-4.68c.76,0,2.16.05,4.2.13s4.06.14,6,.14q3.24,0,6.87-.14c2.42-.08,4.1-.16,5-.22q8.93,0,14,3.87a12.86,12.86,0,0,1,5,10.8,16.44,16.44,0,0,1-3.24,9.81A23.76,23.76,0,0,1,34.25,51L43,65.39a20.52,20.52,0,0,0,4.86,5.94A9.12,9.12,0,0,0,53.42,73l.43.63-.61,3.78-8.66,1A7.54,7.54,0,0,1,39.64,76.23ZM32.11,46a11.84,11.84,0,0,0,3.28-3.65,12.5,12.5,0,0,0,1.75-6.93q0-11-14.7-11a1.41,1.41,0,0,0-1.18.41,3.38,3.38,0,0,0-.39,1.66q-.8,12.33-.88,20.43l8.58.9A32,32,0,0,0,32.11,46Z"/><path d="M57.35,73.49a7.49,7.49,0,0,0,3.77-2,5.52,5.52,0,0,0,1.13-3.73V46.4a7,7,0,0,0-.78-3.78,2.94,2.94,0,0,0-2.63-1.17,7.36,7.36,0,0,0-1.22.13,4.27,4.27,0,0,0-.88.23l.35-4.14Q61.38,37,65.8,36.1c2.94-.64,4.85-1,5.73-1.22l.61,1.26Q71.27,38,70.7,47.35t-.57,20.56a6.77,6.77,0,0,0,.66,3.47,2.42,2.42,0,0,0,2.23,1,15.72,15.72,0,0,0,1.7-.09c.56-.06.92-.09,1.1-.09l.17.45-.7,4.59c-.58-.06-1.7-.12-3.37-.18S68.5,77,66.63,77a40.89,40.89,0,0,0-5.64.45c-2.13.3-3.52.51-4.16.63Zm4.47-49.41a5.71,5.71,0,0,1-1.32-3.87,6.23,6.23,0,0,1,1.67-4.46A5.61,5.61,0,0,1,66.45,14a4.7,4.7,0,0,1,3.72,1.53,5.59,5.59,0,0,1,1.36,3.87,6.22,6.22,0,0,1-1.66,4.45,5.65,5.65,0,0,1-4.29,1.76A4.68,4.68,0,0,1,61.82,24.08Z"/><path d="M88.28,77.58a30.24,30.24,0,0,1-3.8-1,17.48,17.48,0,0,1-1.75-.68l-.35-.72c.17-1.14.38-3,.61-5.72s.38-4.75.44-6.25l3.85-.45q.09,5.31,2,7.65t6.21,2.34a8.58,8.58,0,0,0,4.9-1.35,4,4,0,0,0,2-3.33,4.92,4.92,0,0,0-1.93-3.74,45.66,45.66,0,0,0-7.61-4.63,24,24,0,0,1-7.4-5.35,9.46,9.46,0,0,1-2.31-6.26,11.31,11.31,0,0,1,2.18-6.8,14.63,14.63,0,0,1,6.08-4.72,21.46,21.46,0,0,1,8.71-1.71,25,25,0,0,1,4.33.36q2.06.36,3.33.72l1.62.45.26.63c-.12.6-.38,2-.79,4.23a62.33,62.33,0,0,0-.87,7l-4,.36a7.31,7.31,0,0,1,.09-.9,8.9,8.9,0,0,0,.09-1.26c0-2.16-.54-3.74-1.62-4.72s-2.76-1.49-5-1.49A7.71,7.71,0,0,0,93,41.58a3.84,3.84,0,0,0-1.84,3.2,5.11,5.11,0,0,0,1.62,3.64A22.09,22.09,0,0,0,98,52.07a59.32,59.32,0,0,1,7.61,4.5,13.31,13.31,0,0,1,3.81,3.91,8.93,8.93,0,0,1,1.09,4.46,10.62,10.62,0,0,1-2.27,6.52,15.89,15.89,0,0,1-6.17,4.82,19.88,19.88,0,0,1-8.44,1.8A26.86,26.86,0,0,1,88.28,77.58Z"/><path d="M123.5,75.52q-2.62-2.56-2.62-8.42V45.86c0-1.74-.34-2.92-1-3.55s-2-1-3.89-1l-.53-.63.44-3.42a43.33,43.33,0,0,0,5.69-3.42c1.86-1.32,3.41-2.47,4.64-3.47s2-1.63,2.27-1.93l2.1.9c-.06.3-.17,1.07-.35,2.3s-.35,2.89-.52,5l11.72-.27.35.27-.87,5.4-11.55-.27q-.62,9.63-.62,21.15c0,2.82.48,4.85,1.45,6.07s2.58,1.85,4.85,1.85a8.6,8.6,0,0,0,2.45-.36,18.39,18.39,0,0,0,2.06-.72c.55-.24.92-.39,1.09-.45l1,2.61-2.32,1.94c-1.2,1-2.5,2-3.9,2.88a6.84,6.84,0,0,1-3.15,1.39Q126.13,78.08,123.5,75.52Z"/><path d="M154.61,75.52a17.19,17.19,0,0,1-6.21-7.16,23.76,23.76,0,0,1-2.23-10.53A25.51,25.51,0,0,1,148.83,46a20.46,20.46,0,0,1,7.4-8.19,19.49,19.49,0,0,1,10.59-3,17.08,17.08,0,0,1,9.27,2.52,16.6,16.6,0,0,1,6.21,7.11,24.39,24.39,0,0,1,2.19,10.62,25.52,25.52,0,0,1-2.67,11.79,20.44,20.44,0,0,1-7.39,8.19,19.49,19.49,0,0,1-10.59,3A16.65,16.65,0,0,1,154.61,75.52Zm18.2-6.58q2.49-3.63,2.49-10.21,0-8.28-2.93-13t-7.92-4.77a7.75,7.75,0,0,0-6.82,3.69q-2.46,3.69-2.45,10.26,0,8.28,2.93,13t7.83,4.72A7.86,7.86,0,0,0,172.81,68.94Z"/><path d="M195.51,71.29q.88-1.4.88-5.27V47.12a8.25,8.25,0,0,0-.79-4.27,3,3,0,0,0-2.71-1.22,5.93,5.93,0,0,0-1.09.09,2.7,2.7,0,0,0-.66.18l-.44-.63.35-3.6c2.68-.48,5.43-1,8.23-1.67l5.42-1.21.7.63c-.12.54-.29,1.74-.52,3.6a33.62,33.62,0,0,0-.27,5.31l.35.27a26,26,0,0,1,6.13-6.7q3.41-2.57,6.21-2.57a13,13,0,0,1,1.93.13,5.45,5.45,0,0,1,1,.23l.26.54c-.17.9-.45,2.87-.83,5.89s-.63,5.87-.74,8.51l-4.38.27a17.84,17.84,0,0,0-.48-5.22,1.84,1.84,0,0,0-1.88-1.26,6.25,6.25,0,0,0-3.63,1.35A14.94,14.94,0,0,0,205,49.55c-.05,1.68-.19,4.49-.39,8.41s-.34,7.1-.39,9.5a6.1,6.1,0,0,0,.83,3.73c.55.7,1.59,1,3.1,1a21.24,21.24,0,0,0,2.41-.13,14.74,14.74,0,0,1,1.62-.14l.17.45-.87,4.86c-.7-.06-2-.12-3.94-.18s-3.94-.09-6-.09-4.23,0-6.21.13-3.24.17-3.76.23L192,73C193.76,72.77,194.93,72.22,195.51,71.29Z"/><path d="M246,71l-.52-.18a46.71,46.71,0,0,1-5.65,5c-1.72,1.26-3.05,1.89-4,1.89a11,11,0,0,1-8.27-3.42,11.89,11.89,0,0,1-3.28-8.55A8.48,8.48,0,0,1,225.61,61a6.18,6.18,0,0,1,3.5-2.61L245.83,54l.08-3.15a9.78,9.78,0,0,0-2-6.57,7,7,0,0,0-5.6-2.34,12.83,12.83,0,0,0-5.07,1.17,24,24,0,0,0-5.34,3.24l-.53-.36-1.31-4.5a76.72,76.72,0,0,1,8.62-4.55c3-1.34,5.18-2,6.52-2q6.39,0,9.8,3.2a11.33,11.33,0,0,1,3.41,8.68q0,1.08-.7,8.1-1,9.54-1,11.61a4.46,4.46,0,0,0,.87,2.88,3.09,3.09,0,0,0,2.54,1.08,6.1,6.1,0,0,0,2.58-.63,8.48,8.48,0,0,0,2.15-1.35l1.31,1.71A24.53,24.53,0,0,1,258.6,75a10.88,10.88,0,0,1-4.37,3.06Q246.7,78.08,246,71Zm-4.37-1.49a16.34,16.34,0,0,0,3.67-2.56l.35-8.82L235,61.25a3.28,3.28,0,0,0-2.37,3.42,5.88,5.88,0,0,0,1.54,4.18,5.12,5.12,0,0,0,4,1.67A7.83,7.83,0,0,0,241.63,69.48Z"/><path d="M294.48,71.42a5.33,5.33,0,0,0,1-3.51l.35-16.83q0-4.23-1.67-6.43a5.74,5.74,0,0,0-4.9-2.21q-4,0-9.36,4.05-.26,5.67-.35,7.38-.53,11.52-.52,13.95a7.14,7.14,0,0,0,.65,3.56,2.53,2.53,0,0,0,2.32,1,14.93,14.93,0,0,0,1.62-.09c.55-.06.92-.09,1.09-.09l.18.36-.79,4.68c-.58-.06-1.7-.12-3.37-.18s-3.4-.09-5.2-.09-3.55.07-5.56.23-3.31.25-3.89.31l.61-4.59a5.67,5.67,0,0,0,3.54-1.49,5.37,5.37,0,0,0,1-3.64V47.12c0-2-.31-3.45-.92-4.23a3.94,3.94,0,0,0-3.28-1.17h-1l-.35-.45.35-3.69q4.29-.63,8.53-1.58L280,34.79l.61.81a23.82,23.82,0,0,0-.52,2.34,24.8,24.8,0,0,0-.44,3.69L280,42a56.66,56.66,0,0,1,6.48-4.59c2.68-1.68,4.58-2.52,5.68-2.52q5.86,0,9.19,3.1a11.09,11.09,0,0,1,3.33,8.51q0,2.16-.62,8.82-.78,10.53-.78,12.42a7.16,7.16,0,0,0,.7,3.65,2.46,2.46,0,0,0,2.27,1.12,16,16,0,0,0,1.71-.09c.55-.06.95-.09,1.18-.09l.17.36-.78,4.59q-.89-.09-3.33-.18T300,77a46.47,46.47,0,0,0-5.34.36q-3.06.36-4,.54l.43-4.5A7,7,0,0,0,294.48,71.42Z"/><path d="M320.46,75.52q-2.62-2.56-2.62-8.42V45.86c0-1.74-.34-2.92-1-3.55s-2-1-3.89-1l-.53-.63.44-3.42a43.33,43.33,0,0,0,5.69-3.42c1.86-1.32,3.41-2.47,4.64-3.47s2-1.63,2.27-1.93l2.1.9c-.06.3-.17,1.07-.35,2.3s-.35,2.89-.52,5l11.72-.27.35.27-.87,5.4-11.55-.27q-.61,9.63-.62,21.15c0,2.82.48,4.85,1.45,6.07s2.58,1.85,4.85,1.85a8.6,8.6,0,0,0,2.45-.36,18.39,18.39,0,0,0,2.06-.72c.55-.24.92-.39,1.09-.45l1,2.61-2.32,1.94c-1.2,1-2.5,2-3.9,2.88a6.84,6.84,0,0,1-3.15,1.39Q323.09,78.08,320.46,75.52Z"/><path d="M348,72.54q-5.17-5.54-5.17-14.71a25.06,25.06,0,0,1,2.67-11.48A21.92,21.92,0,0,1,352.79,38a17.63,17.63,0,0,1,10-3.1q6.82,0,10.33,3.56t3.5,10.48a18.81,18.81,0,0,1-.53,4.77l-1.13,1H351.53q0,7.74,3.19,11.88a10.77,10.77,0,0,0,9.06,4.14,24.34,24.34,0,0,0,10.5-2.7l.52.27L376,71.69a42.39,42.39,0,0,1-7.18,4.41,16.25,16.25,0,0,1-6.91,2Q353.18,78.08,348,72.54Zm17.76-22.63a2.26,2.26,0,0,0,1.53-.54,2.71,2.71,0,0,0,.39-1.71,7.58,7.58,0,0,0-1.66-5.26,6.14,6.14,0,0,0-4.81-1.85,8.52,8.52,0,0,0-6.35,2.66,12.62,12.62,0,0,0-3.19,7.42Z"/><path d="M405.25,77.4c-2.39.27-4,.47-4.73.59l.53-4.95c2.62-.48,4.39-1.23,5.29-2.25s1.36-2.76,1.36-5.22l.09-36.63a7.9,7.9,0,0,0-.62-3.78,2.65,2.65,0,0,0-2.45-1,17.24,17.24,0,0,0-1.75.09c-.58.06-1,.09-1.22.09l-.35-.45.7-4.68c.82,0,2.3.05,4.46.13s4.26.14,6.3.14,4.33-.06,6.7-.18L424.5,19q8.65,0,13.26,3.6t4.59,10.26a13.43,13.43,0,0,1-2.58,8,18,18,0,0,1-7.22,5.76,19.25,19.25,0,0,1,9.45,5,11.8,11.8,0,0,1,3.5,8.59,15.21,15.21,0,0,1-2.8,8.95A19.23,19.23,0,0,1,435,75.56a25.17,25.17,0,0,1-10.9,2.34,29.7,29.7,0,0,1-3-.18l-2.54-.27q-5.69-.45-6.83-.45A58.11,58.11,0,0,0,405.25,77.4ZM416.1,66.11a4.9,4.9,0,0,0,2.14,4.5Q420.39,72,425.38,72A9.52,9.52,0,0,0,435.7,61.7,9.87,9.87,0,0,0,433,54.59a14.78,14.78,0,0,0-7.92-3.87l-8.57.18Zm5.25-21c2.27.24,3.73.36,4.37.36,0,.18.67-.13,2-.94a11.93,11.93,0,0,0,3.63-3.6A11,11,0,0,0,433,34.7q0-5.22-3.41-7.74T419,24.44a1.4,1.4,0,0,0-1.18.41,3.14,3.14,0,0,0-.4,1.57q-.53,8.64-.7,18.27C417.53,44.75,419.08,44.9,421.35,45.14Z"/><path d="M456.87,72.54q-5.16-5.54-5.16-14.71a25.06,25.06,0,0,1,2.67-11.48A21.92,21.92,0,0,1,461.64,38a17.61,17.61,0,0,1,10-3.1q6.82,0,10.33,3.56t3.5,10.48a18.81,18.81,0,0,1-.53,4.77l-1.14,1H460.37q0,7.74,3.2,11.88a10.76,10.76,0,0,0,9.05,4.14,24.27,24.27,0,0,0,10.5-2.7l.53.27,1.22,3.42a42.29,42.29,0,0,1-7.17,4.41,16.25,16.25,0,0,1-6.91,2Q462,78.08,456.87,72.54Zm17.77-22.63a2.26,2.26,0,0,0,1.53-.54,2.71,2.71,0,0,0,.39-1.71,7.58,7.58,0,0,0-1.66-5.26,6.14,6.14,0,0,0-4.81-1.85,8.52,8.52,0,0,0-6.35,2.66,12.62,12.62,0,0,0-3.19,7.42Z"/><path d="M491,73.4a6.83,6.83,0,0,0,3.19-1.53,4.29,4.29,0,0,0,1.23-2.47,35.38,35.38,0,0,0,.22-4.55v-43A7.7,7.7,0,0,0,495,18q-.66-1-2.76-1a18.44,18.44,0,0,0-2,.09l-.35-.27.44-3.87a145.32,145.32,0,0,0,15.14-2.7l.52,1.44q-1.05,2.16-1.79,18.81t-.75,37.44a7,7,0,0,0,.66,3.51,2.4,2.4,0,0,0,2.23,1.08l3-.18.17.45-.79,4.5a14.89,14.89,0,0,1-1.83-.09c-2.92-.12-5.22-.18-6.92-.18a56,56,0,0,0-9.45,1Z"/><path d="M542.36,74.66a23,23,0,0,1-9.06-9.76A32.75,32.75,0,0,1,530.11,50,34.15,34.15,0,0,1,534,33.62a27.76,27.76,0,0,1,10.81-11.2,31.23,31.23,0,0,1,15.88-4,50.69,50.69,0,0,1,6.78.49q3.54.51,6,1c1.63.33,2.68.55,3.15.67l.44.81c-.12.36-.32,1.28-.61,2.74s-.6,3.38-.92,5.72-.57,4.83-.75,7.47l-6.12.45a14.69,14.69,0,0,0,.17-1.71q.09-1.26.09-2.88,0-8-11.46-8-8,0-12.47,5.76t-4.51,16a36.46,36.46,0,0,0,2.19,13.27,19.19,19.19,0,0,0,6.17,8.64,14.94,14.94,0,0,0,9.32,3,11.55,11.55,0,0,0,8.62-3.24q3.19-3.24,4.59-10.17l6.13-.54c-.18,1-.51,3.09-1,6.39s-.86,6.39-1.09,9.27l-.62.9a21.05,21.05,0,0,1-2.8,1A55.47,55.47,0,0,1,565,77.27a45.74,45.74,0,0,1-8.84.81A27,27,0,0,1,542.36,74.66Z"/><path d="M583.48,73.49a7.49,7.49,0,0,0,3.77-2,5.52,5.52,0,0,0,1.13-3.73V46.4a7,7,0,0,0-.78-3.78A2.94,2.94,0,0,0,585,41.45a7.36,7.36,0,0,0-1.22.13,4.27,4.27,0,0,0-.88.23l.35-4.14q4.29-.63,8.71-1.57c2.94-.64,4.85-1,5.73-1.22l.61,1.26q-.87,1.89-1.44,11.21t-.57,20.56a6.77,6.77,0,0,0,.66,3.47,2.42,2.42,0,0,0,2.23,1,15.72,15.72,0,0,0,1.7-.09c.56-.06.92-.09,1.1-.09l.17.45-.7,4.59c-.58-.06-1.7-.12-3.37-.18s-3.42-.09-5.29-.09a40.89,40.89,0,0,0-5.64.45c-2.13.3-3.52.51-4.16.63ZM588,24.08a5.71,5.71,0,0,1-1.32-3.87,6.23,6.23,0,0,1,1.67-4.46A5.61,5.61,0,0,1,592.58,14a4.7,4.7,0,0,1,3.72,1.53,5.59,5.59,0,0,1,1.36,3.87A6.22,6.22,0,0,1,596,23.85a5.65,5.65,0,0,1-4.29,1.76A4.68,4.68,0,0,1,588,24.08Z"/><path d="M616.73,77.45a38.19,38.19,0,0,1-4.2-.63l-.87-.9V21.83a6.92,6.92,0,0,0-.79-3.83,3,3,0,0,0-2.62-1.12A8.15,8.15,0,0,0,607,17l-.66.09L606,16.7l.44-3.78c2.86-.36,5.86-.86,9-1.48l6.13-1.22.52,1.44q-.62.9-1.18,8.82T620,41.09a77.83,77.83,0,0,1,6.43-4.46c1.84-1.1,3.05-1.66,3.63-1.66a15.63,15.63,0,0,1,14.7,9.27,23.62,23.62,0,0,1,2.1,10.26A24.72,24.72,0,0,1,644,66.42a22.08,22.08,0,0,1-7.88,8.46A20.51,20.51,0,0,1,625,78,64.47,64.47,0,0,1,616.73,77.45Zm18.47-9.22q2.88-3.74,2.88-10.31a23.41,23.41,0,0,0-1.31-8.1,13.16,13.16,0,0,0-3.67-5.63,7.94,7.94,0,0,0-5.25-2,9,9,0,0,0-4,1.17,16.32,16.32,0,0,0-4,2.88l-.27,24a13.35,13.35,0,0,0,3.5,1.21,18.14,18.14,0,0,0,4.12.5A9.6,9.6,0,0,0,635.2,68.23Z"/><path d="M661,75.52a17.33,17.33,0,0,1-6.21-7.16,23.76,23.76,0,0,1-2.23-10.53A25.52,25.52,0,0,1,655.19,46a20.44,20.44,0,0,1,7.39-8.19,19.49,19.49,0,0,1,10.59-3,17.14,17.14,0,0,1,9.28,2.52,16.6,16.6,0,0,1,6.21,7.11,24.39,24.39,0,0,1,2.18,10.62,25.51,25.51,0,0,1-2.66,11.79,20.46,20.46,0,0,1-7.4,8.19,19.48,19.48,0,0,1-10.58,3A16.71,16.71,0,0,1,661,75.52Zm18.2-6.58q2.51-3.63,2.5-10.21,0-8.28-2.93-13t-7.92-4.77A7.76,7.76,0,0,0,664,44.6q-2.44,3.69-2.45,10.26,0,8.28,2.93,13t7.83,4.72A7.86,7.86,0,0,0,679.16,68.94Z"/><path d="M101.88,164.45c2.28-.45,3.83-1.11,4.63-2s1.2-2.36,1.2-4.46l.07-31.5a6.57,6.57,0,0,0-.54-3.23,2.45,2.45,0,0,0-2.15-.82l-3.07.15-.14-.3.51-3.3a16.73,16.73,0,0,1,1.82.08l6.86.15a66.58,66.58,0,0,0,8.38-.68l-.29,3.37a8.69,8.69,0,0,0-4,1.24,4.15,4.15,0,0,0-1.2,3q-.43,8.78-.73,18.34t-.29,14.06a8.59,8.59,0,0,0,.65,4.09,2.85,2.85,0,0,0,2.56,1c.82,0,2.11-.08,3.86-.22l.15.29-.66,3.46a12.94,12.94,0,0,1-1.6-.08q-5.11-.15-7.95-.15a47.68,47.68,0,0,0-8.46.9Z"/><path d="M125.94,164.83a6.5,6.5,0,0,0,2.88-1.5,3.92,3.92,0,0,0,1-2.18,34.75,34.75,0,0,0,.18-4.27V120.05a6.62,6.62,0,0,0-.51-3.15,2.3,2.3,0,0,0-2.11-.82c-.25,0-.8,0-1.68.15l-.22-.15.29-2.56a92.47,92.47,0,0,0,10.8-2.17l.43,1q-.79,1.28-1.42,16T135,159.65a6.62,6.62,0,0,0,.58,3.23,2.11,2.11,0,0,0,2,1l2.56-.15.14.3-.58,3.23q-4.82-.22-6.49-.23a47.07,47.07,0,0,0-7.51.9Z"/><path d="M162.69,163.4q-4.16-4.5-4.16-12.07a21.13,21.13,0,0,1,2.23-9.72,17.6,17.6,0,0,1,6.05-6.9,15.31,15.31,0,0,1,8.57-2.51,25,25,0,0,1,3.93.3,26.56,26.56,0,0,1,3.1.64,12.83,12.83,0,0,1,1.5.48l.22.53c0,.25-.19.84-.4,1.76s-.46,2.15-.7,3.68a38.62,38.62,0,0,0-.44,4.91l-3,.23V142.4a6.09,6.09,0,0,0-1.64-4.46,5.75,5.75,0,0,0-4.33-1.69,8,8,0,0,0-6.86,3.26q-2.4,3.27-2.4,9.26,0,6.53,2.66,10.32a8.41,8.41,0,0,0,7.25,3.79,12.19,12.19,0,0,0,3.65-.57,26.94,26.94,0,0,0,3.06-1.12,10.14,10.14,0,0,0,1.53-.79l.44.15.8,2.33-2.22,1.57a33.08,33.08,0,0,1-3.94,2.32,8.81,8.81,0,0,1-3.83,1.13A14.35,14.35,0,0,1,162.69,163.4Z"/><path d="M190.32,164.83a5.93,5.93,0,0,0,3.14-1.77,4.77,4.77,0,0,0,.95-3.11v-19q0-4.05-2.7-4.05a6.1,6.1,0,0,0-1.09.11,3.73,3.73,0,0,0-.73.19l.29-2.77q3.06-.45,6.31-1.21c2.16-.49,3.56-.82,4.19-1l.36.9c-.44,1.05-.82,4.26-1.16,9.64s-.51,11-.51,16.91a6.65,6.65,0,0,0,.58,3.19,2.09,2.09,0,0,0,2,1,12.63,12.63,0,0,0,1.53-.08c.48,0,.82-.07,1-.07l.15.3-.59,3.23c-.44-.06-1.26-.11-2.48-.15s-2.55-.08-4-.08a27.82,27.82,0,0,0-4.34.38c-1.63.24-2.68.42-3.17.52Zm3.5-42.6a4.06,4.06,0,0,1-.94-2.71,4.38,4.38,0,0,1,1.24-3.11,4,4,0,0,1,3.06-1.31,3.24,3.24,0,0,1,2.62,1.13,4.06,4.06,0,0,1,.95,2.69,4.39,4.39,0,0,1-1.24,3.12,4.07,4.07,0,0,1-3.06,1.31A3.26,3.26,0,0,1,193.82,122.23Z"/><path d="M217.41,167.49a27.25,27.25,0,0,1-3.17-.49l-.66-.6V120.05q0-4-2.69-4a6.25,6.25,0,0,0-1,.08,2.39,2.39,0,0,0-.58.15l-.22-.23.29-2.48c2.09-.29,4.26-.69,6.49-1.19l4.31-1,.43,1c-.34.5-.65,3-.94,7.61s-.54,10.41-.73,17.51c2.18-1.6,4.07-2.87,5.65-3.83a8.62,8.62,0,0,1,3.17-1.42,13.38,13.38,0,0,1,7.29,2,13.65,13.65,0,0,1,5,5.66,18.72,18.72,0,0,1,1.78,8.36,20.4,20.4,0,0,1-2.44,9.9,18.88,18.88,0,0,1-6.6,7.12,16.73,16.73,0,0,1-9.11,2.63A49.27,49.27,0,0,1,217.41,167.49Zm16-7.13q2.81-3.41,2.81-9.34a18.3,18.3,0,0,0-1.28-6.9,12.26,12.26,0,0,0-3.5-5,7.43,7.43,0,0,0-4.85-1.84,8.74,8.74,0,0,0-3.72,1.16,18.05,18.05,0,0,0-4.08,2.89l-.22,20.85a14.44,14.44,0,0,0,3.36,1.13,18.25,18.25,0,0,0,3.79.44A9.41,9.41,0,0,0,233.38,160.36Z"/><path d="M253.83,165.8a13.91,13.91,0,0,1-5-5.89,20.07,20.07,0,0,1-1.79-8.66,20.94,20.94,0,0,1,2.23-9.64,17.52,17.52,0,0,1,6.08-6.9A15.52,15.52,0,0,1,264,132.2a13.22,13.22,0,0,1,7.33,2.1,13.86,13.86,0,0,1,5,5.89,20.06,20.06,0,0,1,1.78,8.66,21.06,21.06,0,0,1-2.22,9.64,17.46,17.46,0,0,1-6.09,6.9,15.46,15.46,0,0,1-8.6,2.51A13.17,13.17,0,0,1,253.83,165.8Zm15.9-5c1.6-2.27,2.41-5.36,2.41-9.26a22.2,22.2,0,0,0-1.32-7.91,12.53,12.53,0,0,0-3.68-5.44,8.22,8.22,0,0,0-5.36-1.95,7.53,7.53,0,0,0-6.49,3.45q-2.4,3.45-2.4,9.38A21.9,21.9,0,0,0,254.2,157a12.44,12.44,0,0,0,3.64,5.36,8.27,8.27,0,0,0,5.4,1.92A7.55,7.55,0,0,0,269.73,160.81Z"/><path d="M305.09,165.84A13.82,13.82,0,0,1,299.7,160a19,19,0,0,1-1.9-8.66,20.79,20.79,0,0,1,2.22-9.45,18.81,18.81,0,0,1,6-7,13.54,13.54,0,0,1,7.95-2.63q5.31,0,8.09,2.78t2.77,8.1a13.31,13.31,0,0,1-.44,3.67l-.95.9H303.27q-.07,7.28,2.81,11.21a9.39,9.39,0,0,0,8.05,3.94,20.61,20.61,0,0,0,8.9-2.32l.44.14.8,2.18a38.73,38.73,0,0,1-5.8,3.53,12.57,12.57,0,0,1-5.36,1.57A15.57,15.57,0,0,1,305.09,165.84Zm11.67-21.64a2.53,2.53,0,0,0,1.46-.53,2.22,2.22,0,0,0,.36-1.5A6.2,6.2,0,0,0,317,137.6a6,6,0,0,0-4.48-1.58,8.11,8.11,0,0,0-5.87,2.4,11.31,11.31,0,0,0-3.1,6.46Zm-8.31-22.84q-3.65-3-4.74-3.86l-.08-.83,2.77-3.07.73-.15c.64.8,2.07,2.54,4.31,5.21s4.44,5.24,6.63,7.69l-1.46,1.42-.65.15Q312.09,124.41,308.45,121.36Z"/><path d="M362.92,161.83l-.3-.08a38.49,38.49,0,0,1-4.77,4.27,6.55,6.55,0,0,1-3.25,1.58,9,9,0,0,1-9.33-9.3,6.88,6.88,0,0,1,1.06-3.82,5,5,0,0,1,2.8-2.18L363,148.4l.07-3.3a9.13,9.13,0,0,0-1.68-5.85,5.7,5.7,0,0,0-4.74-2.1,11,11,0,0,0-4.3,1,19,19,0,0,0-4.45,2.78l-.36-.23-.88-3.22q3.44-2,6.89-3.64a14.16,14.16,0,0,1,5-1.61,10.4,10.4,0,0,1,7.44,2.55,9.34,9.34,0,0,1,2.7,7.13c0,1.1-.18,3.35-.51,6.74-.54,5.51-.81,9-.81,10.5a3.65,3.65,0,0,0,.81,2.55,2.77,2.77,0,0,0,2.18.91,5.76,5.76,0,0,0,2.41-.57,6.44,6.44,0,0,0,2-1.31l1,1.2a19.24,19.24,0,0,1-2.81,3.64,8.9,8.9,0,0,1-3.54,2.36C365.47,167.9,363.3,165.88,362.92,161.83Zm-3.83-.34a14.27,14.27,0,0,0,3.39-2.59l.36-7.65-9.91,3.08a3,3,0,0,0-2.12,3.15,4.86,4.86,0,0,0,5,5A7.07,7.07,0,0,0,359.09,161.49Z"/><path d="M383.48,162.84a10.57,10.57,0,0,0,.73-4.76v-16.5a7,7,0,0,0-.66-3.53,2.31,2.31,0,0,0-2.12-1.05,5.38,5.38,0,0,0-1,.08,2.32,2.32,0,0,0-.55.15l-.36-.53.22-2.32q2.76-.52,5.87-1.28l4-1,.51.46c-.1.44-.24,1.48-.44,3.11a30.61,30.61,0,0,0-.21,4.61l.29.22a21.34,21.34,0,0,1,5.14-5.77q3-2.25,5.14-2.25a8.85,8.85,0,0,1,1.57.11,4,4,0,0,1,.69.19l.22.3c-.1.7-.31,2.19-.62,4.46a55.93,55.93,0,0,0-.55,6.27l-2.84.22a13.58,13.58,0,0,0-.4-4.09,1.54,1.54,0,0,0-1.57-1,5.77,5.77,0,0,0-3.43,1.39,14.86,14.86,0,0,0-3.35,3.71q-.08,2.17-.29,7.2t-.3,8.1a5.83,5.83,0,0,0,.73,3.45,3.44,3.44,0,0,0,2.77.9c.63,0,1.27,0,1.9-.08s1.07-.07,1.31-.07l.08.3-.66,3.3c-.49,0-1.46,0-2.92-.07s-3-.08-4.52-.08c-1.8,0-3.43,0-4.88.11s-2.39.14-2.77.19l.36-3A3.58,3.58,0,0,0,383.48,162.84Z"/><path d="M412.21,165.84q-2.06-2.07-2-7V140.38a3.85,3.85,0,0,0-.87-2.86,5.22,5.22,0,0,0-3.28-.9l-.29-.45.36-2.25a24.91,24.91,0,0,0,4.12-2.58c1.34-1,2.43-1.93,3.28-2.7s1.4-1.29,1.64-1.54l1.46.6c-.05.25-.12.85-.22,1.8s-.22,2.23-.36,3.83l10.72-.23.21.23-.65,4-10.57-.22q-.52,8.25-.51,18.75c0,2.55.42,4.34,1.27,5.4s2.32,1.57,4.41,1.57a8.26,8.26,0,0,0,2.19-.3,11.09,11.09,0,0,0,1.82-.64c.49-.22.81-.36.95-.41l.73,2c-.29.25-.91.73-1.86,1.43s-2,1.38-3.06,2.06a5.59,5.59,0,0,1-2.44,1Q414.25,167.9,412.21,165.84Z"/><path d="M438.16,165.84a13.82,13.82,0,0,1-5.39-5.85,19,19,0,0,1-1.9-8.66,20.79,20.79,0,0,1,2.22-9.45,18.81,18.81,0,0,1,6-7A13.54,13.54,0,0,1,447,132.2q5.31,0,8.09,2.78t2.77,8.1a13.31,13.31,0,0,1-.44,3.67l-1,.9H436.34q-.07,7.28,2.81,11.21a9.39,9.39,0,0,0,8.05,3.94,20.61,20.61,0,0,0,8.9-2.32l.44.14.8,2.18a38.73,38.73,0,0,1-5.8,3.53,12.57,12.57,0,0,1-5.36,1.57A15.57,15.57,0,0,1,438.16,165.84Zm11.67-21.64a2.53,2.53,0,0,0,1.46-.53,2.22,2.22,0,0,0,.36-1.5,6.2,6.2,0,0,0-1.57-4.57A6,6,0,0,0,445.6,136a8.11,8.11,0,0,0-5.87,2.4,11.31,11.31,0,0,0-3.1,6.46Z"/><path class="cls-2" d="M591.64,189l.75-2.95.49,1,.76-1-.06,1.28.31,0,.11-1.1,1.75,2.76Z"/><path d="M575.69,189h0a20.52,20.52,0,0,1-20.52-20.52V106.55A20.55,20.55,0,0,1,575.72,86h96.06a20.55,20.55,0,0,1,20.55,20.55v28s0,0,0,0a15.42,15.42,0,0,1-1.56-.69,24,24,0,0,0-7.84-3.18,4,4,0,0,1-3.65-4.26,1.61,1.61,0,0,0-.19-.66c-.6-1.3-1.19-2.6-1.82-3.88a9,9,0,0,0-1.08-1.79c-.85-1-1.9-1.86-1.7-3.37h0a6.23,6.23,0,0,0-.71-4.38,38.35,38.35,0,0,0-2.25-4.06c-1.78-2.9-3.25-6-5.94-8.27-2-1.69-4.27-3.17-6.42-4.75s-5.06-2.06-7.75-2.64c0,0,0,0,0,0-.33-1.3-.59-1.4-1.79-.91a6.27,6.27,0,0,1-1.87.47c-1.67.15-3.38,0-5,.25a31.33,31.33,0,0,0-8.56,2.74,21,21,0,0,0-6.26,4.15,64.21,64.21,0,0,0-5,5.81,15,15,0,0,0-1.51,3.32s0,0,0,0l6.31-5,.18.35h0l1.15.8s.05,0,0,0l-.39-1,.34-.27,2.91,2,.19-.23-2-2.12.18-.47c2-.11,4-.25,6-.34,4.41-.21,8.59.94,12.73,2.22,5,1.55,10,3.33,15.08,4.62a20.48,20.48,0,0,1,8.86,5.26c.69.63,1.63,1.2,1.55,2.37a0,0,0,0,1,0,0l-1.28-1a0,0,0,0,0,0,0l-.08.67s0,0,0,0l-3.5-3.7L669,113l2.7,5.45s0,0,0,0l-.9.48c.63.08,1.22-.12,1.76,0,3.16.5,4.78,2.26,5,5.68a25.36,25.36,0,0,1-.5,5s0,0,0,0c.17.1.5.21.5.33a21.9,21.9,0,0,1,0,4.36,55.52,55.52,0,0,1-1.48,5.63l.77-3.58s0,0,0,0a3.92,3.92,0,0,0-1.18,1.71,70.41,70.41,0,0,1-6.82,14.48c-.1.17,0,.43,0,.88a0,0,0,0,0,0,0l2.64-3.71c0,.19.12.43,0,.56-1.61,2.6-3.31,5.15-4.83,7.81-.41.72-1.59,1.41-.81,2.54h0a5.09,5.09,0,0,0,.79-.12,8.89,8.89,0,0,0,2.13-.71,8.61,8.61,0,0,0,1.4-1.48c.22-.22.58-.32.75-.57,1.08-1.47,2.12-3,3.18-4.48,0,0,0,0,0,0l.19.41s0,0,0,0a1.62,1.62,0,0,0,.32-.51,12.2,12.2,0,0,0,.26-1.2l0,0a3.25,3.25,0,0,1-1,4s0,0,0,0c.07.37.18.6.11.69-.82,1-1,2,.1,3,.16.14-.09,1.06-.4,1.35-.5.47-1.29.64-1.81,1.1a28.4,28.4,0,0,0-3.34,3.24,17,17,0,0,0-1.76,3c-.2.38-.22.85-.42,1.23-.52.95-1.17,1.84-1.62,2.82-.61,1.3-1.09,2.65-2.76,3.45h.57l-1.19,2.43c-.7,1.41-1.41,2.82-2.1,4.24a9.36,9.36,0,0,1-.73,1.49,12.59,12.59,0,0,0-2.29,5s0,0,0,0h-2.26a0,0,0,0,1,0,0l.28-1.71.16.06.39-1.11h0l5.82-11.13-.32-.35a9.84,9.84,0,0,0-1.7.81c-1.16.81-2.27,1.68-3.36,2.58-.47.4-1.08.86-1.21,1.39-.54,2.15-.91,4.34-1.35,6.51a7.31,7.31,0,0,1-.28.87c0-2,0-3.78,0-5.54,0-.49,0-1.3-.26-1.39a4.12,4.12,0,0,0-2-.11,15.13,15.13,0,0,0-2.33.69,2.29,2.29,0,0,0-.89.46c-1.08,1.14-1.94,1.11-2.83,0v0c.14-.54.22-1,.35-1.34.25-.73.21-1.62,1.21-1.94a12.54,12.54,0,0,0,1.68-.84,0,0,0,0,0,0,0l-.16-.49h0l-3.33.21s0,0,0,0v-3.44c-.08,0,.09,0,.19-.07a8.12,8.12,0,0,0-1.28-.93c-.26-.13-.82-.15-1,0a8.57,8.57,0,0,0-1.65,2.55,56.58,56.58,0,0,0-1.53,6.58c-.45,2.57-.73,5.18-1.09,7.77a0,0,0,0,1,0,0h-4.84a0,0,0,0,1,0,0,2.58,2.58,0,0,1-.17-.93c.19-1.33.46-2.66.67-4s.35-2.4.49-3.6a12.76,12.76,0,0,1,.07-1.53c.48-1.89,1.15-3.73,1.5-5.64.41-2.25,1.63-4,2.75-6a0,0,0,0,0,0,0c-5.54-5.75-10.82-11.79-12.19-20.23l0,0c-1.45.43-2.61.75-3.75,1.11-4.12,1.29-7.75,3.56-11.4,5.78-1.78,1.08-3.59,2.29-4.33,4.25-1.23,3.26-2,6.72-3.2,10a58.72,58.72,0,0,1-3.22,6.24s0,0,0,0L597,165.59s0,0,0,0c-.06.53-.12,1-.18,1.42a32.83,32.83,0,0,1-.49,3.86c-.82,3.31-3.16,5.68-5.31,8.15-.58.66-1.21.49-1.87.23h0l-6.2-4.4h0c-2.09-3.53-1.43-7.07,0-10.64,0,0,0,0,0,0a35.62,35.62,0,0,0-2.2,4c-1.84,4-3.71,8-5.4,12a27.85,27.85,0,0,0-1.1,4.69s0,0,0,0l.32.08,0,0,.89-3.27a0,0,0,0,1,0,0,4.82,4.82,0,0,1,.25,1.66c.05.58.41,1.29.19,1.72a4.5,4.5,0,0,0-.14,3.92S575.7,189,575.69,189Zm43.58-74.1h0c.8-1,1.65-2,2.38-3,.19-.27,0-.78,0-1.18l-.29-.07-2.1,4.27h0c-.59,1.89-1.57,3.69-1.43,5.7.41-1.31.86-2.65,1.23-4A9.51,9.51,0,0,0,619.27,114.9Zm-37.4,21.67s0,0,0,0c1.16,0,2.24,0,3.32,0,.43,0,1.18,0,1.25-.15.33-.93,1-.5,1.61-.61,3.24-.64,6,1.24,9,1.75.69.11,1.18.19,1.63-.77,0,0,0,0,0,0a13.78,13.78,0,0,0-3.09-2.11,13,13,0,0,0-4.34-.6,55.77,55.77,0,0,0-6.95.53A2.88,2.88,0,0,0,581.87,136.57Zm13.18-9.13s0,0,0,0c1-1,1.58-2.17,3.32-2.28a3.69,3.69,0,0,1,3.65,1.41s.05,0,.05,0a2.79,2.79,0,0,0-2.49-3.07C597.84,123.28,595.49,125.27,595.05,127.44Zm-7.64,23c1.38-.78,1.46-.75,4.63.44a0,0,0,0,0,0,0,2.89,2.89,0,0,0-1.9-2.89c-1.79-.33-1.83,1.32-2.79,2.44C587.36,150.41,587.39,150.44,587.41,150.43Zm64.24-37.22s0,0,0,0l3.45-3.8-.69.17s0,0,0,0l.28-.76-.26-.11-.85,1.81-.28-.15.68-1.61s0,0,0,0C652.45,108.65,651.45,110.68,651.65,113.21Zm12.12,4.88.29,0V115.3h.22l.25,3.09a0,0,0,0,0,0,0c.93-1.14.36-2.18,0-3.22s-.74-2.36-1.11-3.54a0,0,0,0,0,0,0l-.38,0a0,0,0,0,0,0,0c.1.81.18,1.62.31,2.42,0,.2.36.37.37.55C663.78,115.8,663.77,117,663.77,118.09Zm-81.08,23a0,0,0,0,0,0,0,9.09,9.09,0,0,0-1.12-1c-.21-.13-.7-.17-.81-.05-.58.72-1.1,1.5-1.63,2.26,0,0,0,0,0,0C580.32,141.82,582,142.66,582.69,141.14Zm85.63-28.92-.53.1s0,0,0,0l.78,3.5-.27,0-.23-.39h0l1.1,2.93.3-.07s0,0,0,0l-1.09-6.06S668.34,112.22,668.32,112.22Zm-9.13,1.67,1.23-3.9s0,0,0,0c-1.32.94-2.3,3.14-1.93,4.22,0,0,.1.06.19.1l.1-1a0,0,0,0,1,0,0l.37.59A0,0,0,0,0,659.19,113.89Zm-59.59,25.5,1.94,6.26s.05,0,.05,0c.14-2-.81-5.33-2-6.29C599.62,139.35,599.59,139.37,599.6,139.39Zm-3.24,4.05,1.73.12.16-.57-2.13-1.05a0,0,0,0,0,0,0l.25,1.45A0,0,0,0,0,596.36,143.44Zm70-29c-.16,1.49.42,2.61,1.22,2.69,0,0,0,0,0,0l-1.21-2.67A0,0,0,0,0,666.41,114.44Z"/><path class="cls-2" d="M676.16,139.91a55.52,55.52,0,0,0,1.48-5.63,21.9,21.9,0,0,0,0-4.36c0-.12-.35-.23-.51-.34a26.16,26.16,0,0,0,.5-5c-.27-3.42-1.89-5.18-5-5.68-.54-.08-1.13.12-1.76,0l.91-.49-2.78-5.6.45-.31,3.64,3.84.09-.77,1.34,1.1h0c-.2,1.51.85,2.37,1.7,3.37a9,9,0,0,1,1.08,1.79c.63,1.28,1.22,2.58,1.82,3.88a1.61,1.61,0,0,1,.19.66,4,4,0,0,0,3.65,4.26,24,24,0,0,1,7.84,3.18c.51.28,1.06.47,1.59.71v33.92A20.53,20.53,0,0,1,671.81,189H656.37a12.56,12.56,0,0,1,2.3-5,9.36,9.36,0,0,0,.73-1.49c.69-1.42,1.4-2.83,2.1-4.24l1.19-2.43h-.57c1.67-.8,2.15-2.15,2.76-3.45.45-1,1.1-1.87,1.62-2.82.2-.38.22-.85.42-1.23a17,17,0,0,1,1.76-3,28.4,28.4,0,0,1,3.34-3.24c.52-.46,1.31-.63,1.81-1.1.31-.29.56-1.21.4-1.35-1.15-1-.92-2-.1-3,.07-.09,0-.33-.11-.7a3.27,3.27,0,0,0,1-4l.77,1c.35-.36.71-.57.79-.86a1.86,1.86,0,0,0-.19-1,12.81,12.81,0,0,0-.61-1.16l1.33,1.17a10.46,10.46,0,0,0,.23-1.93,4.51,4.51,0,0,0-.51-1.27l1.34,1.4c-.22-1.33.68-2.47-.68-3.05l-.62,1.7-1.06,2c0,.67,0,1.33,0,2.34l-.65-1.11-.12.83a12.2,12.2,0,0,1-.26,1.2,2.28,2.28,0,0,1-.34.55l-.22-.48c-1.07,1.52-2.12,3-3.2,4.51-.17.25-.53.35-.75.57a8.61,8.61,0,0,1-1.4,1.48,8.89,8.89,0,0,1-2.13.71,5.38,5.38,0,0,1-.81.12c-.8-1.13.39-1.82.8-2.55,1.52-2.66,3.22-5.21,4.83-7.81.08-.13,0-.37,0-.56l0,0c.78-1.25,1.61-2.48,2.31-3.78a23.42,23.42,0,0,0,1-2.65Zm-5.29,37.15.48.09.66-2.1c.12-.36.12-.88.37-1.06a5,5,0,0,0,2.26-3.42c.08-.46.51-.86.66-1.33a21.38,21.38,0,0,0,1-3.89c0-.39-.85-1-1.4-1.32-.87-.56-1.75-1.27-2.89-1a3,3,0,0,0-1.26.73c-.12.11.2.61.26.94a18,18,0,0,1,.53,3.6C671.43,171.25,671.11,174.15,670.87,177.06Z"/><path class="cls-2" d="M589.1,179.25c.67.26,1.3.43,1.88-.23,2.15-2.47,4.49-4.84,5.31-8.15a32.83,32.83,0,0,0,.49-3.86c.06-.47.12-.95.2-1.52l2.92,8.94a57.88,57.88,0,0,0,3.25-6.29c1.23-3.27,2-6.73,3.2-10,.74-2,2.55-3.17,4.33-4.25,3.65-2.22,7.28-4.49,11.4-5.78,1.15-.36,2.31-.68,3.78-1.12,1.36,8.46,6.65,14.51,12.2,20.28-1.13,1.95-2.35,3.75-2.76,6-.35,1.91-1,3.75-1.5,5.64a12.76,12.76,0,0,0-.07,1.53c-.14,1.2-.3,2.4-.49,3.6s-.48,2.66-.67,4a3,3,0,0,0,.17.95H598.58c-.17-1-.36-2-.51-2.95-.25-1.55-.84-1.79-2.23-.94a10.24,10.24,0,0,1-1.47.65l-.17-.27,1.36-2.75-1.2-.36c1.42-3.67,3.25-7.1,2.69-11.19-.38,4.06-2,7.38-5.56,9.33l1.41,1.61-.25.24Z"/><path d="M589.1,179.25l3.55,3.12.25-.24-1.41-1.61c3.57-2,5.18-5.27,5.56-9.33.56,4.09-1.27,7.52-2.69,11.19l1.2.36-1.36,2.75.17.27a10.24,10.24,0,0,0,1.47-.65c1.39-.85,2-.61,2.23.94.15,1,.34,2,.51,2.95h-2.83L594,186.24l-.11,1.1-.31,0,.06-1.28-.76,1-.49-1-.75,2.95H576.23c-.07-.67-1-1.24-.13-2a2.44,2.44,0,0,0,.63-1.33c.37-2.7.48-5.45,1.07-8.1.66-2.95,1.74-5.81,2.63-8.71l.45.09c-.56,3.9-2,7.9,1.49,11.33l-.64-3.59,1.07-.58-.81-1.54.91.3Z"/><path class="cls-2" d="M637.62,189c.36-2.6.63-5.21,1.09-7.79a56.58,56.58,0,0,1,1.53-6.58,8.57,8.57,0,0,1,1.65-2.55c.13-.17.69-.15,1,0a8.12,8.12,0,0,1,1.28.93c-.1,0-.27.11-.19.07v3.46l3.37-.21.18.52a11.73,11.73,0,0,1-1.7.85c-1,.32-1,1.21-1.21,1.94-.13.4-.21.8-.36,1.35.89,1.13,1.76,1.17,2.84,0a2.29,2.29,0,0,1,.89-.46,15.13,15.13,0,0,1,2.33-.69,4.12,4.12,0,0,1,2,.11c.23.09.25.9.26,1.39,0,1.76,0,3.52,0,5.54a7.31,7.31,0,0,0,.28-.87c.44-2.17.81-4.36,1.35-6.51.13-.53.74-1,1.21-1.39,1.09-.9,2.2-1.77,3.36-2.58a11.45,11.45,0,0,1,1.8-.86l.25.34-5.85,11.2-.39,1.11-.16-.06-.28,1.74Z"/><path class="cls-2" d="M582.9,174.84l-.91-.3.81,1.54-1.07.58.64,3.59c-3.45-3.43-2-7.43-1.49-11.33l-.45-.09c-.89,2.9-2,5.76-2.63,8.71-.59,2.65-.7,5.4-1.07,8.1a2.44,2.44,0,0,1-.63,1.33c-.84.79.06,1.36.13,2h-.51a4.53,4.53,0,0,1,.13-3.95c.22-.43-.14-1.14-.19-1.72a4.58,4.58,0,0,0-.28-1.72l-.92,3.35-.36-.08a29.11,29.11,0,0,1,1.11-4.71c1.69-4,3.56-8,5.4-12a36,36,0,0,1,2.32-4.18C581.5,167.63,580.77,171.24,582.9,174.84Z"/><path class="cls-2" d="M674.47,116.71c.11-1.2-.84-1.79-1.54-2.42a20.48,20.48,0,0,0-8.86-5.26C659,107.74,654,106,649,104.41c-4.14-1.28-8.32-2.43-12.73-2.22-2,.09-4,.23-6,.35l-.13.42,2.2,2.32-.16.19L629,103.29l-.29.26.45,1.13-1.23-.86-.18-.35-6.38,5a16,16,0,0,1,1.54-3.4,64.21,64.21,0,0,1,5-5.81,21,21,0,0,1,6.26-4.15,31.33,31.33,0,0,1,8.56-2.74c1.58-.26,3.22-.12,4.83-.23a6.89,6.89,0,0,0,2-.48c1.23-.5,1.48-.41,1.82.92,2.69.58,5.45.94,7.76,2.64,2.15,1.58,4.37,3.06,6.42,4.75,2.69,2.22,4.16,5.37,5.94,8.27a38.35,38.35,0,0,1,2.25,4.06,6.26,6.26,0,0,1,.71,4.39Z"/><path class="cls-2" d="M581.86,136.6a2.89,2.89,0,0,1,2.46-2,55.77,55.77,0,0,1,6.95-.53,13,13,0,0,1,4.34.6,14.53,14.53,0,0,1,3.11,2.12c-.45,1-.94.9-1.64.79-3-.51-5.77-2.39-9-1.75-.56.11-1.28-.32-1.61.61-.07.18-.82.14-1.25.15C584.12,136.61,583,136.6,581.86,136.6Z"/><path class="cls-2" d="M676.16,139.91l-1.32,3.38-3.33,6.43,0,0-2.68,3.77c0-.49-.09-.77,0-.95A70.41,70.41,0,0,0,675.71,138a4,4,0,0,1,1.23-1.76Z"/><path class="cls-2" d="M595,127.52c.39-2.2,2.78-4.24,4.58-4a2.8,2.8,0,0,1,2.48,3.13c-1-1.34-2.11-1.55-3.69-1.46C596.64,125.29,596.05,126.5,595,127.52Z"/><path class="cls-2" d="M587.29,150.49c1.05-1.12,1-2.88,2.88-2.54a2.91,2.91,0,0,1,1.9,2.93C588.79,149.65,588.79,149.65,587.29,150.49Z"/><path class="cls-2" d="M651.66,113.26c-.22-2.57.8-4.64,2.35-4.55l-.69,1.64.28.15.85-1.81.26.11-.3.8.73-.18Z"/><path class="cls-2" d="M663.77,118.09c0-1.14,0-2.29,0-3.44,0-.18-.33-.35-.37-.55-.13-.81-.21-1.63-.31-2.44l.41,0c.37,1.18.73,2.37,1.12,3.56s.92,2.11-.07,3.27l-.25-3.15h-.22v2.77Z"/><path class="cls-2" d="M582.69,141.12c-.69,1.57-2.43.67-3.62,1.23.55-.78,1.08-1.58,1.68-2.32.11-.12.6-.08.81.05A10.07,10.07,0,0,1,582.69,141.12Z"/><path class="cls-2" d="M668.35,112.21l1.1,6.11-.43.11-1.17-2.86.2-.1.24.4.27,0-.79-3.52Z"/><path class="cls-2" d="M659.17,113.94l-.43-.69-.1,1c-.09,0-.18-.06-.19-.1-.37-1.1.64-3.34,2-4.26Z"/><path class="cls-2" d="M599.58,139.32c1.19.9,2.19,4.47,2,6.44Z"/><path class="cls-2" d="M619.28,114.9q1.07-2.13,2.11-4.26l.29.07c0,.4.16.91,0,1.18-.73,1-1.58,2-2.38,3Z"/><path class="cls-2" d="M596.34,143.44l-.25-1.52,2.28,1.13-.16.52Z"/><path class="cls-2" d="M619.27,114.89a9.62,9.62,0,0,1-.18,1.71c-.37,1.36-.82,2.7-1.23,4-.14-2,.84-3.81,1.42-5.7Z"/><path class="cls-2" d="M666.42,114.36l1.25,2.78C666.84,117.09,666.23,115.92,666.42,114.36Z"/><path d="M670.87,177.07c.24-2.91.56-5.82.67-8.74a18,18,0,0,0-.53-3.6c-.06-.33-.38-.83-.26-.94a3,3,0,0,1,1.26-.73c1.14-.3,2,.41,2.89,1,.55.35,1.44.93,1.4,1.32a21.38,21.38,0,0,1-1,3.89c-.15.47-.58.87-.66,1.33a5,5,0,0,1-2.26,3.42c-.25.18-.25.7-.37,1.06l-.66,2.1Z"/><path d="M671.51,149.72l3.33-6.43a23.42,23.42,0,0,1-1,2.65C673.12,147.24,672.29,148.47,671.51,149.72Z"/><path d="M676.89,147.86l.62-1.7c1.36.58.46,1.72.68,3.05l-1.34-1.39Z"/><path d="M675.83,149.88l1.06-2,0,0a4.34,4.34,0,0,1,.51,1.26,10.46,10.46,0,0,1-.23,1.93l-1.33-1.16Z"/><path d="M675.07,151.94l.12-.83.65,1.11c0-1,0-1.67,0-2.34l0,0a11.44,11.44,0,0,1,.61,1.15,1.86,1.86,0,0,1,.19,1c-.08.29-.44.5-.79.86l-.77-1Z"/></g></svg>
